<svg width="120" height="120" viewBox="0 0 120 120" fill="none" xmlns="http://www.w3.org/2000/svg">
<g clip-path="url(#clip0_295_6271)">
<circle cx="59.5" cy="28.5" r="14.5" fill="url(#paint0_linear_295_6271)"/>
<circle cx="62.5" cy="25.5" r="4.5" fill="white"/>
<path d="M24 57L46 35L53 41L47.5 47.5L43.5 46.5L40.5 49L42 52L39 55L36.5 52L34 54L36.5 57L34.5 59.5H25.5L24 57Z" fill="url(#paint1_linear_295_6271)"/>
<path d="M24.7449 60.6675C25.0923 61.0153 25.5545 61.2129 26.046 61.2234L34.3606 61.4051C34.3743 61.4055 34.388 61.4055 34.4015 61.4055C34.9023 61.4055 35.3898 61.2041 35.7446 60.8496L37.7508 58.8431C38.4903 58.1031 38.4903 56.8989 37.7506 56.1587L35.9613 54.3694L36.5821 53.7484L38.3716 55.5379C39.1117 56.2774 40.3156 56.2776 41.0561 55.5377L43.0423 53.5515C43.782 52.8114 43.782 51.6073 43.0419 50.8671L42.1226 49.9476L43.7587 48.3114L45.9596 49.0982C46.646 49.3436 47.424 49.1693 47.9407 48.6529L53.5258 43.0674C55.4926 43.8992 57.6243 44.3377 59.8241 44.3377C64.143 44.3377 68.2031 42.6559 71.2569 39.6021C77.5606 33.2977 77.5606 23.04 71.2569 16.7357C68.2033 13.6819 64.143 12 59.8243 12C55.5056 12 51.4455 13.6819 48.3915 16.7357C47.106 18.0214 46.0556 19.4959 45.2698 21.1178C44.9311 21.8167 45.2233 22.6579 45.9223 22.9965C46.6213 23.3355 47.4622 23.0428 47.8008 22.3442C48.4492 21.0054 49.3171 19.7876 50.3803 18.7245C52.9027 16.2019 56.2567 14.8125 59.8243 14.8125C63.3918 14.8125 66.7456 16.2019 69.2683 18.7245C74.4757 23.9321 74.4757 32.4058 69.2683 37.6134C66.7456 40.1361 63.3918 41.5254 59.8243 41.5254C56.2567 41.5254 52.9029 40.1361 50.3803 37.6134C47.8451 35.0782 46.4559 31.7072 46.4685 28.1216C46.4713 27.345 45.8439 26.7131 45.0673 26.7105H45.0622C44.288 26.7105 43.659 27.3369 43.6561 28.1119C43.6483 30.3324 44.0874 32.4838 44.9263 34.4678L23.078 56.3164C22.3385 57.0564 22.3385 58.2606 23.0784 59.0008L24.7449 60.6675ZM46.3136 37.0577C46.6576 37.5784 47.0353 38.0799 47.442 38.5627L44.8905 41.1144C44.3413 41.6636 44.3413 42.5541 44.8905 43.1031C45.1651 43.3776 45.5251 43.515 45.885 43.515C46.2448 43.515 46.6048 43.3777 46.8795 43.1031L49.431 40.5516C49.9138 40.9581 50.4157 41.3353 50.9364 41.6796L46.3612 46.2551L44.16 45.4682C43.4726 45.2231 42.6948 45.3977 42.1792 45.9137L39.4871 48.6056C38.7476 49.3457 38.7476 50.5498 39.4875 51.2901L40.4068 52.2096L39.7138 52.9027L37.9246 51.1136C37.5661 50.7549 37.0893 50.5575 36.5821 50.5575C36.075 50.5575 35.5981 50.7549 35.2398 51.1134L33.3264 53.0271C32.9675 53.3857 32.7701 53.8626 32.7701 54.3698C32.7701 54.8769 32.9675 55.3537 33.326 55.7121L35.1153 57.5014L34.0318 58.5851L26.4746 58.4198L25.7135 57.6585L46.3136 37.0577Z" fill="black"/>
<path d="M66.3301 30.2631C68.7008 27.892 68.7008 24.0342 66.3301 21.6631C65.1814 20.5145 63.6544 19.8818 62.0301 19.8818C60.406 19.8818 58.879 20.5145 57.7302 21.6631C55.3594 24.0342 55.3594 27.892 57.7304 30.2631C58.879 31.4118 60.406 32.0444 62.0301 32.0444C63.6544 32.0442 65.1814 31.4118 66.3301 30.2631ZM59.7188 23.6519C60.3362 23.0346 61.1571 22.6945 62.0301 22.6945C62.9031 22.6945 63.724 23.0345 64.3412 23.6519C65.6157 24.9263 65.6157 27.0001 64.3412 28.2745C63.724 28.8918 62.9031 29.2319 62.0301 29.2319C61.1571 29.2319 60.3363 28.892 59.719 28.2745C58.4446 27.0001 58.4446 24.9261 59.7188 23.6519Z" fill="black"/>
<path d="M106.594 78.2942H89.3015C87.7073 76.7432 85.6478 75.5591 83.1389 74.764C79.6945 73.6723 76.4787 73.6877 75.5742 73.7185C74.7113 73.7445 73.9036 73.368 73.4007 72.7028L66.1782 63.1446C65.1316 61.7597 63.6081 60.8646 61.8886 60.6246C60.1675 60.3848 58.4585 60.8286 57.0749 61.8748C55.6932 62.9196 54.8018 64.4396 54.5652 66.1553C54.3282 67.8728 54.7756 69.5803 55.8248 70.9629L65.4507 83.6492C60.2077 85.9901 55.5548 88.8831 53.6785 90.0994L32.4119 73.4126C30.3128 71.7656 27.5585 71.5067 25.2663 72.501L22.277 70.9414C18.8466 69.1517 14.5971 70.4869 12.803 73.9172C11.9339 75.5794 11.7638 77.4797 12.3243 79.2685C12.8847 81.0576 14.1087 82.5203 15.7711 83.3876L35.5 93.6806C35.5015 93.6814 35.5028 93.6818 35.5043 93.6825L51.8418 106.502C53.0733 107.468 54.614 108 56.1798 108C56.522 108 56.867 107.975 57.2048 107.925L78.6725 104.761C79.4408 104.648 79.9718 103.933 79.8586 103.165C79.7453 102.396 79.0302 101.866 78.2624 101.978L56.7948 105.143C55.6651 105.309 54.478 104.995 53.578 104.289L25.472 82.2358C24.5875 81.5421 24.0269 80.5459 23.893 79.4312C23.7591 78.3169 24.068 77.217 24.7621 76.3345C26.1966 74.5108 28.8498 74.193 30.6756 75.6255L52.7395 92.9378C53.2212 93.3158 53.8917 93.3385 54.398 92.9948C54.5333 92.9027 68.0511 83.7859 77.1211 83.0852C81.7523 82.7275 85.804 83.9209 88.5312 86.4456C90.9207 88.6575 92.1835 91.7783 92.1835 95.4705C92.1835 96.2471 92.813 96.8768 93.5898 96.8768C94.3666 96.8768 94.996 96.2471 94.996 95.4705C94.996 90.9743 93.4212 87.1397 90.4418 84.3816C87.1332 81.3186 82.3276 79.8621 76.9043 80.281C74.159 80.493 71.1106 81.3686 68.1305 82.528L58.0655 69.2629C57.4709 68.4793 57.2174 67.5124 57.3515 66.5398C57.4855 65.5695 57.9897 64.7094 58.7714 64.1184C59.5555 63.5256 60.5255 63.2743 61.4999 63.4103C62.476 63.5466 63.3408 64.0545 63.9348 64.8403L71.1573 74.3985C72.211 75.7931 73.8998 76.588 75.67 76.5295C76.6677 76.4957 85.5288 76.3718 88.9664 82.4042C89.3512 83.079 90.2099 83.3143 90.8845 82.9298C91.528 82.563 91.7705 81.7654 91.4581 81.1069H105.187V100.608L88.8678 100.433C88.7954 100.432 88.7206 100.437 88.6476 100.448L84.76 101.021C83.9916 101.135 83.4606 101.849 83.5739 102.617C83.677 103.316 84.2774 103.819 84.9633 103.819C85.0315 103.819 85.1005 103.814 85.1701 103.804L88.9482 103.247L106.578 103.435C106.957 103.439 107.316 103.293 107.582 103.029C107.85 102.764 108 102.404 108 102.029V79.7005C108 78.9238 107.37 78.2942 106.594 78.2942ZM15.008 78.4277C14.6721 77.3561 14.7741 76.2171 15.295 75.2209C16.3711 73.1633 18.9194 72.3621 20.9759 73.4351L22.7474 74.3593C22.681 74.4366 22.6152 74.5148 22.5516 74.5956C21.3925 76.0691 20.8773 77.9055 21.1006 79.7665C21.311 81.5177 22.1521 83.0929 23.4798 84.2374L17.0718 80.8943C16.0765 80.3749 15.3436 79.4989 15.008 78.4277Z" fill="black"/>
</g>
<defs>
<linearGradient id="paint0_linear_295_6271" x1="59.5" y1="43" x2="59.5" y2="15.5104" gradientUnits="userSpaceOnUse">
<stop stop-color="#EE7900"/>
<stop offset="1" stop-color="white" stop-opacity="0"/>
<stop offset="1.0001" stop-color="#EE7900" stop-opacity="0"/>
</linearGradient>
<linearGradient id="paint1_linear_295_6271" x1="38.5" y1="59.5" x2="38.5" y2="36.276" gradientUnits="userSpaceOnUse">
<stop stop-color="#EE7900"/>
<stop offset="1" stop-color="white" stop-opacity="0"/>
<stop offset="1.0001" stop-color="#EE7900" stop-opacity="0"/>
</linearGradient>
<clipPath id="clip0_295_6271">
<rect width="96" height="96" fill="white" transform="translate(12 12)"/>
</clipPath>
</defs>
</svg>
