<svg width="120" height="120" viewBox="0 0 120 120" fill="none" xmlns="http://www.w3.org/2000/svg">
<g clip-path="url(#clip0_524_3228)">
<path fill-rule="evenodd" clip-rule="evenodd" d="M59.6468 75.9999L65.4507 83.6491C60.2077 85.9901 55.5548 88.883 53.6785 90.0993L32.4119 73.4126C30.3128 71.7656 27.5585 71.5066 25.2663 72.5009L22.277 70.9413C18.8466 69.1516 14.5971 70.4868 12.803 73.9171C11.9339 75.5793 11.7638 77.4796 12.3243 79.2684C12.8847 81.0575 14.1087 82.5202 15.7711 83.3876L35.5 93.6806L35.5043 93.6824L51.8418 106.502C53.0733 107.468 54.614 108 56.1798 108C56.522 108 56.867 107.975 57.2048 107.925L78.6725 104.761C79.4408 104.648 79.9718 103.933 79.8586 103.164C79.7453 102.396 79.0302 101.865 78.2624 101.978L56.7948 105.143C55.6651 105.309 54.478 104.995 53.578 104.289L25.472 82.2357C24.5875 81.542 24.0269 80.5458 23.893 79.4311C23.7591 78.3168 24.068 77.2169 24.7621 76.3344C26.1966 74.5107 28.8498 74.1929 30.6756 75.6254L52.7395 92.9377C53.2212 93.3157 53.8917 93.3384 54.398 92.9947C54.5333 92.9026 68.0511 83.7858 77.1211 83.0851C81.7523 82.7274 85.804 83.9208 88.5312 86.4455C90.9207 88.6574 92.1835 91.7782 92.1835 95.4704C92.1835 96.2471 92.813 96.8767 93.5898 96.8767C94.3666 96.8767 94.996 96.2471 94.996 95.4704C94.996 90.9742 93.4212 87.1396 90.4418 84.3815C87.1332 81.3185 82.3276 79.862 76.9043 80.2809C74.159 80.4929 71.1106 81.3686 68.1305 82.5279L63.1773 75.9999H59.6468ZM73.1262 75.9999C73.9062 76.3716 74.7778 76.5589 75.67 76.5294C76.6677 76.4956 85.5288 76.3717 88.9664 82.4041C89.3512 83.0789 90.2099 83.3142 90.8845 82.9297C91.528 82.5629 91.7705 81.7653 91.4581 81.1068H105.187V100.608L88.8678 100.433C88.7954 100.432 88.7206 100.437 88.6476 100.448L84.76 101.021C83.9916 101.134 83.4606 101.849 83.5739 102.617C83.677 103.316 84.2774 103.819 84.9633 103.819C85.0315 103.819 85.1005 103.814 85.1701 103.804L88.9482 103.247L106.578 103.435C106.957 103.439 107.316 103.293 107.582 103.029C107.85 102.764 108 102.404 108 102.029V79.7004C108 78.9237 107.37 78.2941 106.594 78.2941H89.3015C88.3911 77.4083 87.3289 76.6422 86.1179 75.9999H73.1262ZM15.295 75.2208C14.7741 76.217 14.6721 77.3561 15.008 78.4276C15.3436 79.4988 16.0765 80.3748 17.0718 80.8942L23.4798 84.2373C22.1521 83.0928 21.311 81.5176 21.1006 79.7664C20.8773 77.9054 21.3925 76.0691 22.5516 74.5955C22.6152 74.5147 22.681 74.4365 22.7474 74.3592L20.9759 73.4351C18.9194 72.362 16.3711 73.1632 15.295 75.2208Z" fill="black"/>
<g clip-path="url(#clip1_524_3228)">
<rect x="40" y="13" width="12" height="4" fill="url(#paint0_linear_524_3228)"/>
<rect x="56" y="40" width="18" height="19" fill="url(#paint1_linear_524_3228)"/>
<path d="M88.6713 39.7853L88.918 39.9524C89.1135 40.0847 89.3428 40.1543 89.5753 40.1543C89.649 40.1543 89.7232 40.1474 89.7964 40.1332C90.1018 40.0746 90.3714 39.897 90.5458 39.6397L94.7975 33.3652C95.1605 32.8296 95.0204 32.1008 94.4848 31.7378L65.6568 12.2019C65.2599 11.9327 64.7389 11.9327 64.3421 12.2019L51.1713 21.1273V19.0285C52.3395 18.9969 53.2807 18.0388 53.2807 16.8633V14.168C53.2807 12.9727 52.3084 12 51.1127 12H41.3866C40.1909 12 39.2187 12.9727 39.2187 14.168V16.8633C39.2187 18.0388 40.1598 18.9969 41.328 19.0285V27.7983L35.514 31.7378C34.9784 32.1008 34.8383 32.8296 35.2013 33.3652L39.4535 39.6397C39.6279 39.897 39.8971 40.0746 40.2024 40.1332C40.5077 40.1918 40.8236 40.1268 41.0808 39.9524L41.328 39.7853V64.0312H38.5155C37.8683 64.0312 37.3437 64.5558 37.3437 65.203V70.828C37.3437 71.4753 37.8683 71.9999 38.5155 71.9999H91.4837C92.131 71.9999 92.6556 71.4753 92.6556 70.828V65.203C92.6556 64.5558 92.131 64.0312 91.4837 64.0312H88.6713V57.1881C88.6713 56.5408 88.1467 56.0162 87.4994 56.0162C86.8521 56.0162 86.3275 56.5408 86.3275 57.1881V64.0312H43.6713V38.6258C43.6713 38.4912 43.6475 38.3621 43.6059 38.2417L64.9994 23.7435L86.3934 38.2417C86.3513 38.3621 86.3275 38.4912 86.3275 38.6258V46.6412C86.3275 47.2885 86.8521 47.8131 87.4994 47.8131C88.1467 47.8131 88.6713 47.2885 88.6713 46.6412V39.7853ZM90.3119 69.6562H39.6869V66.3749H90.3119V69.6562ZM41.5619 14.3437H50.9369V16.6875H41.5619V14.3437ZM43.6713 19.0312H48.8276V22.7158L43.6713 26.2099V19.0312ZM64.9994 21.1562C64.7701 21.1562 64.5407 21.2235 64.3421 21.358L40.7361 37.355L37.7991 33.0205L50.5373 24.3884C50.6192 24.3459 50.6952 24.2941 50.7644 24.2342L64.9994 14.5877L92.1997 33.0205L89.2627 37.355L65.6568 21.358C65.4586 21.2235 65.2288 21.1562 64.9994 21.1562Z" fill="black"/>
<path d="M53.9839 39.8906V59.5781C53.9839 60.2254 54.5085 60.75 55.1558 60.75H74.8432C75.4905 60.75 76.0151 60.2254 76.0151 59.5781V39.8906C76.0151 39.2433 75.4905 38.7188 74.8432 38.7188H55.1558C54.5085 38.7188 53.9839 39.2433 53.9839 39.8906ZM56.3276 50.9062H63.8276V58.4062H56.3276V50.9062ZM66.1714 58.4062V50.9062H73.6714V58.4062H66.1714ZM73.6714 48.5625H66.1714V41.0625H73.6714V48.5625ZM63.8276 41.0625V48.5625H56.3276V41.0625H63.8276Z" fill="black"/>
<path d="M68.999 31.9219C68.999 29.7251 67.2114 27.9375 65.0146 27.9375C62.8174 27.9375 61.0303 29.7251 61.0303 31.9219C61.0303 34.1191 62.8174 35.9062 65.0146 35.9062C67.2114 35.9062 68.999 34.1191 68.999 31.9219ZM63.374 31.9219C63.374 31.0173 64.1096 30.2812 65.0146 30.2812C65.9192 30.2812 66.6553 31.0173 66.6553 31.9219C66.6553 32.8264 65.9192 33.5625 65.0146 33.5625C64.1096 33.5625 63.374 32.8264 63.374 31.9219Z" fill="black"/>
<path d="M87.4995 50.7424C87.1914 50.7424 86.8889 50.8679 86.671 51.0858C86.4531 51.3036 86.3276 51.6058 86.3276 51.9143C86.3276 52.2233 86.4531 52.5245 86.671 52.7429C86.8889 52.9617 87.1914 53.0862 87.4995 53.0862C87.8076 53.0862 88.1102 52.9617 88.3281 52.7429C88.546 52.5245 88.6714 52.2233 88.6714 51.9143C88.6714 51.6058 88.546 51.3046 88.3281 51.0858C88.1102 50.8679 87.8076 50.7424 87.4995 50.7424Z" fill="black"/>
</g>
</g>
<defs>
<linearGradient id="paint0_linear_524_3228" x1="40" y1="14.7959" x2="51.993" y2="14.4384" gradientUnits="userSpaceOnUse">
<stop stop-color="#EE7900"/>
<stop offset="1" stop-color="#EE7900" stop-opacity="0"/>
</linearGradient>
<linearGradient id="paint1_linear_524_3228" x1="56" y1="48.5306" x2="74.0039" y2="48.3611" gradientUnits="userSpaceOnUse">
<stop stop-color="#EE7900"/>
<stop offset="1" stop-color="#EE7900" stop-opacity="0"/>
</linearGradient>
<clipPath id="clip0_524_3228">
<rect width="96" height="96" fill="white" transform="translate(12 12)"/>
</clipPath>
<clipPath id="clip1_524_3228">
<rect width="60" height="60" fill="white" transform="translate(35 12)"/>
</clipPath>
</defs>
</svg>
