<svg width="176" height="32" viewBox="0 0 176 32" fill="none" xmlns="http://www.w3.org/2000/svg">
<path d="M21.9245 0L7.36426 21.2499H36.4847L21.9245 0Z" fill="#E30615"/>
<path d="M24.0591 27.3884H20.9176L18.863 25.9456L20.945 22.8451L21.7367 21.6663H7.07875L0 32H27.2183L24.0591 27.3884Z" fill="black"/>
<path d="M37.3839 32H43.8508L36.7701 21.6663H30.3032L37.3839 32Z" fill="black"/>
<path d="M23.5489 24.0513L28.9953 32H35.6048L28.5261 21.6663H21.9165L23.5489 24.0513Z" fill="black"/>
<path d="M12.3511 13.9718L0 32H24.7043L12.3511 13.9718Z" fill="#00AFEA"/>
<path d="M60.5321 13.4944H58.6326L57.8771 11.5301H54.4192L53.7069 13.4944H51.8506L55.2222 4.84306H57.0699L60.5364 13.4944H60.5321ZM57.3159 10.071L56.1244 6.85912L54.9545 10.071H57.3159Z" fill="black"/>
<path d="M61.4473 4.84306H63.1957V9.53134C63.1957 10.2739 63.2172 10.7574 63.2604 10.9775C63.3338 11.3315 63.5151 11.6165 63.7957 11.8323C64.0763 12.0482 64.4605 12.1561 64.9484 12.1561C65.4362 12.1561 65.8161 12.0568 66.0708 11.8539C66.3212 11.651 66.4723 11.4006 66.5241 11.1071C66.5759 10.8135 66.6018 10.3214 66.6018 9.63927V4.8517H68.3502V9.39752C68.3502 10.4379 68.3027 11.1718 68.2077 11.5992C68.1127 12.0266 67.9401 12.3892 67.6854 12.6871C67.4307 12.985 67.0939 13.2181 66.6665 13.3908C66.2392 13.5634 65.6866 13.6541 65.0002 13.6541C64.1756 13.6541 63.5453 13.5591 63.1223 13.3692C62.6949 13.1792 62.3582 12.9288 62.1121 12.6267C61.866 12.3245 61.702 12.0007 61.6243 11.6683C61.512 11.1718 61.4516 10.4422 61.4516 9.47091V4.85602L61.4473 4.84306Z" fill="black"/>
<path d="M69.7447 10.6797L71.4456 10.5156C71.5492 11.0855 71.7564 11.5042 72.0673 11.7719C72.3781 12.0395 72.8012 12.1734 73.3322 12.1734C73.8934 12.1734 74.3208 12.0525 74.6057 11.8151C74.8906 11.5776 75.0331 11.297 75.0331 10.9819C75.0331 10.779 74.9726 10.602 74.8517 10.4595C74.7309 10.317 74.5237 10.1919 74.2215 10.0839C74.0186 10.0149 73.5523 9.88535 72.8228 9.70403C71.886 9.47091 71.2298 9.18599 70.8499 8.84927C70.3189 8.37439 70.0512 7.79159 70.0512 7.1095C70.0512 6.66916 70.1764 6.25474 70.4268 5.87484C70.6772 5.49063 71.0355 5.19706 71.5061 4.99848C71.9766 4.7999 72.5421 4.69629 73.207 4.69629C74.2949 4.69629 75.1108 4.93373 75.659 5.4086C76.2073 5.88347 76.4965 6.52239 76.5224 7.31672L74.774 7.39443C74.7007 6.94977 74.5409 6.63031 74.2949 6.43605C74.0488 6.24178 73.6818 6.14249 73.1897 6.14249C72.6976 6.14249 72.2831 6.2461 71.9982 6.45332C71.8126 6.58715 71.7219 6.76414 71.7219 6.98862C71.7219 7.19152 71.8083 7.36852 71.9809 7.5153C72.2011 7.70093 72.7364 7.8952 73.5869 8.09379C74.4373 8.29237 75.0633 8.5039 75.4734 8.71543C75.8835 8.92697 76.1987 9.22484 76.4275 9.59611C76.6563 9.96737 76.7728 10.4293 76.7728 10.9732C76.7728 11.4697 76.6347 11.9316 76.3584 12.3676C76.0821 12.7993 75.6936 13.1231 75.1885 13.3346C74.6834 13.5462 74.0574 13.6498 73.3063 13.6498C72.2141 13.6498 71.3722 13.3951 70.7851 12.89C70.198 12.3849 69.8483 11.6467 69.7361 10.6797H69.7447Z" fill="black"/>
<path d="M80.2005 13.4944V6.30654H77.6318V4.84306H84.5088V6.30654H81.9489V13.4944H80.2005Z" fill="black"/>
<path d="M85.6399 13.4944V4.84306H89.318C90.2418 4.84306 90.9153 4.92077 91.334 5.07619C91.7528 5.2316 92.0895 5.50789 92.3399 5.90505C92.5903 6.30222 92.7198 6.75551 92.7198 7.26923C92.7198 7.91678 92.5299 8.45641 92.1456 8.87948C91.7657 9.30255 91.1916 9.5702 90.4361 9.67813C90.816 9.8983 91.1268 10.14 91.3729 10.4034C91.619 10.6667 91.9514 11.1373 92.3658 11.8064L93.4235 13.4944H91.334L90.0692 11.6122C89.6202 10.9387 89.3137 10.5156 89.1496 10.3386C88.9856 10.1616 88.8086 10.0451 88.623 9.98032C88.4373 9.91556 88.1438 9.88103 87.7423 9.88103H87.3883V13.4944H85.6399ZM87.3883 8.49958H88.6791C89.5166 8.49958 90.0389 8.46504 90.2505 8.39165C90.4577 8.32258 90.6217 8.19739 90.7383 8.02471C90.8549 7.85203 90.9153 7.63618 90.9153 7.37716C90.9153 7.08792 90.8376 6.85048 90.6822 6.67348C90.5268 6.49217 90.3066 6.37993 90.026 6.33244C89.8835 6.31085 89.4605 6.30222 88.7525 6.30222H87.3883V8.49958Z" fill="black"/>
<path d="M102.165 13.4944H100.266L99.5105 11.5301H96.0526L95.3403 13.4944H93.4883L96.8599 4.84306H98.7076L102.174 13.4944H102.165ZM98.9493 10.071L97.7578 6.85912L96.5879 10.071H98.9493Z" fill="black"/>
<path d="M103.141 13.4944V4.91214H104.89V12.0352H109.232V13.4944H103.141Z" fill="black"/>
<path d="M110.424 13.4944V4.84306H112.172V13.4944H110.424Z" fill="black"/>
<path d="M121.64 13.4944H119.74L118.985 11.5301H115.527L114.814 13.4944H112.962L116.334 4.84306H118.182L121.648 13.4944H121.64ZM118.423 10.071L117.232 6.85912L116.062 10.071H118.423Z" fill="black"/>
<path d="M122.581 13.4944V4.84306H124.281L127.821 10.6192V4.84306H129.445V13.4944H127.692L124.204 7.85203V13.4944H122.581Z" fill="black"/>
<path d="M138.679 10.3127V8.85358H142.443V12.2986C142.076 12.6526 141.545 12.9634 140.854 13.2354C140.164 13.5073 139.456 13.6412 138.743 13.6412C137.837 13.6412 137.051 13.4512 136.378 13.0713C135.704 12.6914 135.199 12.1475 134.862 11.4438C134.526 10.7401 134.353 9.96737 134.353 9.1385C134.353 8.23625 134.543 7.4376 134.919 6.73824C135.294 6.03889 135.851 5.49925 136.576 5.12799C137.133 4.83875 137.82 4.69629 138.648 4.69629C139.723 4.69629 140.561 4.92078 141.165 5.37406C141.77 5.82735 142.158 6.449 142.331 7.24333L140.595 7.56711C140.475 7.14404 140.246 6.80731 139.909 6.56124C139.572 6.31517 139.154 6.19429 138.648 6.19429C137.884 6.19429 137.28 6.43605 136.827 6.91956C136.373 7.40306 136.149 8.11968 136.149 9.07375C136.149 10.1012 136.378 10.8696 136.835 11.3834C137.293 11.8971 137.889 12.1518 138.631 12.1518C138.998 12.1518 139.365 12.0784 139.732 11.9359C140.099 11.7935 140.414 11.6165 140.677 11.4136V10.317H138.679V10.3127Z" fill="black"/>
<path d="M144.062 13.4944V4.84306H147.74C148.664 4.84306 149.337 4.92077 149.756 5.07619C150.175 5.2316 150.512 5.50789 150.762 5.90505C151.012 6.30222 151.142 6.75551 151.142 7.26923C151.142 7.91678 150.952 8.45641 150.568 8.87948C150.184 9.30255 149.614 9.5702 148.858 9.67813C149.238 9.8983 149.549 10.14 149.795 10.4034C150.041 10.6667 150.373 11.1373 150.788 11.8064L151.846 13.4944H149.756L148.491 11.6122C148.042 10.9387 147.736 10.5156 147.572 10.3386C147.408 10.1616 147.231 10.0451 147.045 9.98032C146.859 9.91556 146.566 9.88103 146.164 9.88103H145.81V13.4944H144.062ZM145.806 8.49958H147.097C147.934 8.49958 148.457 8.46504 148.668 8.39165C148.88 8.31826 149.04 8.19739 149.156 8.02471C149.273 7.85203 149.333 7.63618 149.333 7.37716C149.333 7.08792 149.255 6.85048 149.1 6.67348C148.945 6.49648 148.724 6.37993 148.444 6.33244C148.301 6.31085 147.878 6.30222 147.17 6.30222H145.806V8.49958Z" fill="black"/>
<path d="M152.782 13.4944V4.84306H159.198V6.30654H154.531V8.22329H158.874V9.68244H154.531V12.0395H159.366V13.4987H152.787L152.782 13.4944Z" fill="black"/>
<path d="M160.847 13.4944V4.84306H167.262V6.30654H162.595V8.22329H166.938V9.68244H162.595V12.0395H167.43V13.4987H160.851L160.847 13.4944Z" fill="black"/>
<path d="M168.928 13.4944V4.84306H170.629L174.169 10.6192V4.84306H175.792V13.4944H174.04L170.551 7.85203V13.4944H168.928Z" fill="black"/>
<path d="M51.8592 27.144V18.4927H54.661C55.723 18.4927 56.4137 18.5358 56.7375 18.6222C57.2339 18.7517 57.6483 19.0366 57.9808 19.4683C58.3132 19.9043 58.4815 20.4656 58.4815 21.152C58.4815 21.683 58.3866 22.1276 58.1923 22.4902C57.998 22.8529 57.7563 23.1378 57.4584 23.345C57.1605 23.5522 56.8583 23.686 56.5518 23.7551C56.1331 23.8371 55.5287 23.8803 54.7387 23.8803H53.599V27.144H51.8506H51.8592ZM53.6033 19.9562V22.4125H54.5574C55.2438 22.4125 55.7057 22.3694 55.9388 22.2787C56.1719 22.188 56.3532 22.0456 56.4827 21.8556C56.6166 21.6614 56.6813 21.4369 56.6813 21.1822C56.6813 20.867 56.5907 20.608 56.405 20.4051C56.2194 20.2022 55.9863 20.0727 55.7014 20.0209C55.4941 19.9821 55.0754 19.9605 54.4451 19.9605H53.599L53.6033 19.9562Z" fill="black"/>
<path d="M59.5652 22.8701C59.5652 21.9895 59.699 21.2513 59.9624 20.6512C60.1609 20.2109 60.4286 19.8137 60.7696 19.464C61.1107 19.1143 61.4819 18.8553 61.8877 18.6869C62.4274 18.4581 63.049 18.3459 63.7527 18.3459C65.0262 18.3459 66.0493 18.7431 66.8135 19.5331C67.5776 20.3231 67.9618 21.4239 67.9618 22.8313C67.9618 24.2386 67.5819 25.3222 66.8221 26.1079C66.0623 26.8979 65.0478 27.2908 63.7786 27.2908C62.5094 27.2908 61.469 26.8979 60.7092 26.1122C59.9494 25.3265 59.5695 24.2473 59.5695 22.8701H59.5652ZM61.3654 22.814C61.3654 23.794 61.5899 24.5365 62.0432 25.0416C62.4964 25.5467 63.0706 25.8014 63.7656 25.8014C64.4607 25.8014 65.0348 25.551 65.4795 25.0502C65.9242 24.5495 66.1486 23.794 66.1486 22.7924C66.1486 21.7909 65.9328 21.0613 65.4968 20.5735C65.0607 20.0857 64.4866 19.8396 63.7656 19.8396C63.0447 19.8396 62.4662 20.0857 62.0259 20.5821C61.5855 21.0743 61.3654 21.8211 61.3654 22.814Z" fill="black"/>
<path d="M70.552 27.144L68.4841 18.4927H70.2714L71.5751 24.4372L73.1551 18.4927H75.2316L76.7469 24.5365L78.0765 18.4927H79.8336L77.7312 27.144H75.8792L74.1567 20.6771L72.4385 27.144H70.5433H70.552Z" fill="black"/>
<path d="M80.7314 27.144V18.4927H87.1465V19.9562H82.4798V21.8729H86.8228V23.3321H82.4798V25.6892H87.3149V27.1483H80.7358L80.7314 27.144Z" fill="black"/>
<path d="M88.8 27.144V18.4927H92.4781C93.402 18.4927 94.0754 18.5704 94.4942 18.7258C94.9129 18.8812 95.2497 19.1575 95.5001 19.5547C95.7504 19.9518 95.88 20.4051 95.88 20.9188C95.88 21.5664 95.69 22.106 95.3058 22.5291C94.9259 22.9522 94.3517 23.2198 93.5963 23.3277C93.9762 23.5479 94.287 23.7897 94.533 24.053C94.7791 24.3163 95.1115 24.7869 95.526 25.456L96.5836 27.144H94.4942L93.2293 25.2618C92.7803 24.5883 92.4738 24.1652 92.3098 23.9882C92.1457 23.8112 91.9687 23.6947 91.7831 23.6299C91.5975 23.5652 91.3039 23.5306 90.9024 23.5306H90.5484V27.144H88.8ZM90.5484 22.1492H91.8392C92.6767 22.1492 93.1991 22.1147 93.4106 22.0413C93.6178 21.9722 93.7819 21.847 93.8984 21.6743C94.015 21.5016 94.0754 21.2858 94.0754 21.0268C94.0754 20.7375 93.9977 20.5001 93.8423 20.3231C93.6869 20.1418 93.4667 20.0295 93.1861 19.9821C93.0437 19.9605 92.6206 19.9518 91.9126 19.9518H90.5484V22.1492Z" fill="black"/>
<path d="M100.439 24.3293L102.139 24.1652C102.243 24.7351 102.45 25.1538 102.761 25.4215C103.072 25.6891 103.495 25.823 104.026 25.823C104.587 25.823 105.015 25.7021 105.3 25.4647C105.584 25.2272 105.727 24.9466 105.727 24.6315C105.727 24.4286 105.666 24.2516 105.546 24.1091C105.425 23.9667 105.218 23.8415 104.915 23.7335C104.712 23.6645 104.246 23.535 103.517 23.3536C102.58 23.1205 101.924 22.8356 101.544 22.4989C101.013 22.024 100.745 21.4412 100.745 20.7591C100.745 20.3188 100.87 19.9043 101.121 19.5245C101.371 19.1402 101.729 18.8467 102.2 18.6481C102.67 18.4495 103.236 18.3459 103.901 18.3459C104.989 18.3459 105.805 18.5833 106.353 19.0582C106.901 19.5331 107.19 20.172 107.216 20.9663L105.468 21.044C105.395 20.5994 105.235 20.2799 104.989 20.0857C104.743 19.8914 104.376 19.7921 103.884 19.7921C103.391 19.7921 102.977 19.8957 102.692 20.1029C102.506 20.2368 102.416 20.4138 102.416 20.6382C102.416 20.8411 102.502 21.0181 102.675 21.1649C102.895 21.3505 103.43 21.5448 104.281 21.7434C105.131 21.942 105.757 22.1535 106.167 22.365C106.577 22.5766 106.893 22.8745 107.121 23.2457C107.35 23.617 107.467 24.0789 107.467 24.6228C107.467 25.1193 107.329 25.5812 107.052 26.0172C106.776 26.4489 106.387 26.7727 105.882 26.9843C105.377 27.1958 104.751 27.2994 104 27.2994C102.908 27.2994 102.066 27.0447 101.479 26.5396C100.892 26.0345 100.542 25.2963 100.43 24.3293H100.439Z" fill="black"/>
<path d="M108.589 22.8701C108.589 21.9895 108.723 21.2513 108.986 20.6512C109.185 20.2109 109.453 19.8137 109.794 19.464C110.135 19.1143 110.506 18.8553 110.912 18.6869C111.451 18.4581 112.073 18.3459 112.777 18.3459C114.05 18.3459 115.073 18.7431 115.837 19.5331C116.602 20.3231 116.986 21.4239 116.986 22.8313C116.986 24.2386 116.606 25.3222 115.846 26.1079C115.086 26.8936 114.072 27.2908 112.803 27.2908C111.533 27.2908 110.493 26.8979 109.733 26.1122C108.973 25.3265 108.593 24.2473 108.593 22.8701H108.589ZM110.389 22.814C110.389 23.794 110.614 24.5365 111.067 25.0416C111.52 25.5467 112.095 25.8014 112.79 25.8014C113.485 25.8014 114.059 25.551 114.503 25.0502C114.948 24.5495 115.173 23.794 115.173 22.7924C115.173 21.7909 114.957 21.0613 114.521 20.5735C114.085 20.0857 113.511 19.8396 112.79 19.8396C112.069 19.8396 111.49 20.0857 111.05 20.5821C110.609 21.0743 110.389 21.8211 110.389 22.814Z" fill="black"/>
<path d="M118.393 27.144V18.5618H120.141V25.6848H124.484V27.144H118.393Z" fill="black"/>
<path d="M125.719 18.4927H127.467V23.181C127.467 23.9235 127.489 24.407 127.532 24.6272C127.606 24.9812 127.787 25.2661 128.067 25.4819C128.348 25.6978 128.732 25.8057 129.22 25.8057C129.708 25.8057 130.088 25.7064 130.343 25.5035C130.597 25.3006 130.744 25.0502 130.796 24.7567C130.848 24.4631 130.874 23.971 130.874 23.2889V18.5013H132.622V23.0471C132.622 24.0875 132.574 24.8214 132.479 25.2488C132.384 25.6762 132.212 26.0388 131.957 26.3367C131.702 26.6346 131.366 26.8677 130.938 27.0404C130.511 27.2131 129.958 27.3037 129.272 27.3037C128.447 27.3037 127.817 27.2087 127.394 27.0188C126.971 26.8288 126.63 26.5785 126.384 26.2763C126.138 25.9741 125.974 25.6503 125.896 25.3179C125.784 24.8214 125.723 24.0918 125.723 23.1205V18.5056L125.719 18.4927Z" fill="black"/>
<path d="M136.408 27.144V19.9562H133.839V18.4927H140.716V19.9562H138.156V27.144H136.408Z" fill="black"/>
<path d="M141.791 27.144V18.4927H143.54V27.144H141.791Z" fill="black"/>
<path d="M144.848 22.8701C144.848 21.9895 144.982 21.2513 145.245 20.6512C145.444 20.2109 145.711 19.8137 146.052 19.464C146.393 19.1143 146.765 18.8553 147.17 18.6869C147.71 18.4581 148.332 18.3459 149.035 18.3459C150.309 18.3459 151.332 18.7431 152.096 19.5331C152.86 20.3231 153.244 21.4239 153.244 22.8313C153.244 24.2386 152.865 25.3222 152.105 26.1079C151.345 26.8936 150.331 27.2908 149.061 27.2908C147.792 27.2908 146.752 26.8979 145.992 26.1122C145.232 25.3265 144.852 24.2473 144.852 22.8701H144.848ZM146.648 22.814C146.648 23.794 146.873 24.5365 147.326 25.0416C147.779 25.5467 148.353 25.8014 149.048 25.8014C149.743 25.8014 150.318 25.551 150.762 25.0502C151.207 24.5495 151.431 23.794 151.431 22.7924C151.431 21.7909 151.215 21.0613 150.779 20.5735C150.343 20.0857 149.769 19.8396 149.048 19.8396C148.327 19.8396 147.749 20.0857 147.309 20.5821C146.868 21.0786 146.648 21.8211 146.648 22.814Z" fill="black"/>
<path d="M154.622 27.144V18.4927H156.322L159.862 24.2688V18.4927H161.486V27.144H159.733L156.245 21.5016V27.144H154.622Z" fill="black"/>
<path d="M162.889 24.3293L164.589 24.1652C164.693 24.7351 164.9 25.1538 165.211 25.4215C165.522 25.6891 165.945 25.823 166.476 25.823C167.037 25.823 167.465 25.7021 167.749 25.4647C168.034 25.2272 168.177 24.9466 168.177 24.6315C168.177 24.4286 168.116 24.2516 167.996 24.1091C167.875 23.9667 167.667 23.8415 167.365 23.7335C167.162 23.6645 166.696 23.535 165.967 23.3536C165.03 23.1205 164.374 22.8356 163.994 22.4989C163.463 22.024 163.195 21.4412 163.195 20.7591C163.195 20.3188 163.32 19.9043 163.571 19.5245C163.821 19.1446 164.179 18.8467 164.65 18.6481C165.12 18.4495 165.686 18.3459 166.351 18.3459C167.439 18.3459 168.255 18.5833 168.803 19.0582C169.351 19.5331 169.64 20.172 169.666 20.9663L167.918 21.044C167.844 20.5994 167.685 20.2799 167.439 20.0857C167.193 19.8914 166.826 19.7921 166.333 19.7921C165.841 19.7921 165.427 19.8957 165.142 20.1029C164.956 20.2368 164.866 20.4138 164.866 20.6382C164.866 20.8411 164.952 21.0181 165.125 21.1649C165.345 21.3505 165.88 21.5448 166.731 21.7434C167.581 21.942 168.207 22.1535 168.617 22.365C169.027 22.5766 169.342 22.8745 169.571 23.2457C169.8 23.617 169.917 24.0789 169.917 24.6228C169.917 25.1193 169.778 25.5812 169.502 26.0172C169.226 26.4533 168.837 26.7727 168.332 26.9843C167.827 27.1958 167.201 27.2994 166.45 27.2994C165.358 27.2994 164.516 27.0447 163.929 26.5396C163.342 26.0345 162.992 25.2963 162.88 24.3293H162.889Z" fill="black"/>
</svg>
