<svg width="120" height="120" viewBox="0 0 120 120" fill="none" xmlns="http://www.w3.org/2000/svg">
<g clip-path="url(#clip0_295_6600)">
<rect x="46.9996" y="20" width="26" height="48" fill="url(#paint0_linear_295_6600)"/>
<rect width="26" height="32" transform="matrix(1 0 0 -1 46.9996 100)" fill="#EE7900"/>
<path d="M100.56 19.4407H19.5599C17.0747 19.4407 15.0599 21.4554 15.0599 23.9407V95.9407C15.0599 98.426 17.0747 100.441 19.5599 100.441H100.56C103.045 100.441 105.06 98.426 105.06 95.9407V23.9407C105.06 21.4554 103.045 19.4407 100.56 19.4407ZM60.6809 97.4407L72.0599 86.0617V89.3197L63.9389 97.4407H60.6809ZM53.1809 97.4407L72.0599 78.5617V81.8197L56.4389 97.4407H53.1809ZM48.0599 97.4407V95.0617L72.0599 71.0617V74.3197L48.9389 97.4407H48.0599ZM60.9389 70.4407L48.0599 83.3197V80.0617L57.6809 70.4407H60.9389ZM68.4389 70.4407L48.0599 90.8197V87.5617L65.1809 70.4407H68.4389ZM102.06 73.4407H75.0599V70.4407H102.06V73.4407ZM75.0599 82.4407H102.06V85.4407H75.0599V82.4407ZM75.0599 79.4407V76.4407H102.06V79.4407H75.0599ZM75.0599 28.4407H90.2099C90.8156 31.3846 93.1161 33.685 96.0599 34.2907V55.5907C93.1161 56.1963 90.8156 58.4968 90.2099 61.4407H75.0599V28.4407ZM45.0599 79.4407H18.0599V76.4407H45.0599V79.4407ZM45.0599 82.4407V85.4407H18.0599V82.4407H45.0599ZM48.0599 75.8197V70.4407H53.4389L48.0599 75.8197ZM45.0599 61.4407H29.9099C29.3043 58.4968 27.0038 56.1963 24.0599 55.5907V34.2907C27.0038 33.685 29.3043 31.3846 29.9099 28.4407H45.0599V61.4407ZM45.0599 73.4407H18.0599V70.4407H45.0599V73.4407ZM18.0599 88.4407H45.0599V91.4407H18.0599V88.4407ZM75.0599 88.4407H102.06V91.4407H75.0599V88.4407ZM102.06 23.9407V67.4407H75.0599V64.4407H91.5599C92.3884 64.4407 93.0599 63.7691 93.0599 62.9407C93.0599 60.4554 95.0747 58.4407 97.5599 58.4407C98.3884 58.4407 99.0599 57.7691 99.0599 56.9407V32.9407C99.0599 32.1122 98.3884 31.4407 97.5599 31.4407C95.0747 31.4407 93.0599 29.426 93.0599 26.9407C93.0599 26.1122 92.3884 25.4407 91.5599 25.4407H75.0599V22.4407H100.56C101.388 22.4407 102.06 23.1122 102.06 23.9407ZM72.0599 22.4407V67.4407H48.0599V22.4407H72.0599ZM18.0599 23.9407C18.0599 23.1122 18.7315 22.4407 19.5599 22.4407H45.0599V25.4407H28.5599C27.7315 25.4407 27.0599 26.1122 27.0599 26.9407C27.0599 29.426 25.0452 31.4407 22.5599 31.4407C21.7315 31.4407 21.0599 32.1122 21.0599 32.9407V56.9407C21.0599 57.7691 21.7315 58.4407 22.5599 58.4407C25.0452 58.4407 27.0599 60.4554 27.0599 62.9407C27.0599 63.7691 27.7315 64.4407 28.5599 64.4407H45.0599V67.4407H18.0599V23.9407ZM18.0599 95.9407V94.4407H45.0599V97.4407H19.5599C18.7315 97.4407 18.0599 96.7691 18.0599 95.9407ZM68.1809 97.4407L72.0599 93.5617V97.4407H68.1809ZM100.56 97.4407H75.0599V94.4407H102.06V95.9407C102.06 96.7691 101.388 97.4407 100.56 97.4407Z" fill="black"/>
<path d="M27.0599 44.9407C27.0599 49.9042 30.4244 53.9407 34.5599 53.9407C38.6954 53.9407 42.0599 49.9042 42.0599 44.9407C42.0599 39.9772 38.6954 35.9407 34.5599 35.9407C30.4244 35.9407 27.0599 39.9772 27.0599 44.9407ZM34.5599 38.9407C37.0409 38.9407 39.0599 41.6317 39.0599 44.9407C39.0599 48.2497 37.0409 50.9407 34.5599 50.9407C32.0789 50.9407 30.0599 48.2497 30.0599 44.9407C30.0599 41.6317 32.0789 38.9407 34.5599 38.9407Z" fill="black"/>
<path d="M34.5601 47.9407C35.3885 47.9407 36.0601 47.2691 36.0601 46.4407V43.4407C36.0601 42.6122 35.3885 41.9407 34.5601 41.9407C33.7316 41.9407 33.0601 42.6122 33.0601 43.4407V46.4407C33.0601 47.2691 33.7316 47.9407 34.5601 47.9407Z" fill="black"/>
<path d="M93.0606 44.9412C93.0606 39.9777 89.6961 35.9412 85.5606 35.9412C81.4251 35.9412 78.0606 39.9777 78.0606 44.9412C78.0606 49.9047 81.4251 53.9412 85.5606 53.9412C89.6961 53.9412 93.0606 49.9047 93.0606 44.9412ZM85.5606 50.9412C83.0796 50.9412 81.0606 48.2502 81.0606 44.9412C81.0606 41.6322 83.0796 38.9412 85.5606 38.9412C88.0416 38.9412 90.0606 41.6322 90.0606 44.9412C90.0606 48.2502 88.0416 50.9412 85.5606 50.9412Z" fill="black"/>
<path d="M85.5606 41.9412C84.7322 41.9412 84.0606 42.6127 84.0606 43.4412V46.4412C84.0606 47.2696 84.7322 47.9412 85.5606 47.9412C86.389 47.9412 87.0606 47.2696 87.0606 46.4412V43.4412C87.0606 42.6127 86.389 41.9412 85.5606 41.9412Z" fill="black"/>
</g>
<defs>
<linearGradient id="paint0_linear_295_6600" x1="59.9996" y1="68" x2="59.9996" y2="22.5" gradientUnits="userSpaceOnUse">
<stop stop-color="#EE7900"/>
<stop offset="1" stop-color="#EE7900" stop-opacity="0"/>
</linearGradient>
<clipPath id="clip0_295_6600">
<rect width="90" height="90" fill="white" transform="translate(15.0602 14.9399)"/>
</clipPath>
</defs>
</svg>
