<svg width="120" height="120" viewBox="0 0 120 120" fill="none" xmlns="http://www.w3.org/2000/svg">
<g clip-path="url(#clip0_295_6570)">
<path d="M23.9996 42L27.4996 37H99.9996V83H28.4996L24.4996 79L18.9996 74.5V45.5L23.9996 42Z" fill="url(#paint0_linear_295_6570)"/>
<circle cx="59.9996" cy="60" r="15" fill="white"/>
<path d="M103.14 29.6604H16.7398C14.0889 29.6604 11.9398 31.8094 11.9398 34.4604V85.6604C11.9398 88.3114 14.0889 90.4604 16.7398 90.4604H103.14C105.791 90.4604 107.94 88.3114 107.94 85.6604V34.4604C107.94 31.8094 105.791 29.6604 103.14 29.6604ZM104.74 85.6604C104.74 86.5441 104.023 87.2604 103.14 87.2604H16.7398C15.8562 87.2604 15.1398 86.5441 15.1398 85.6604V34.4604C15.1398 33.5767 15.8562 32.8604 16.7398 32.8604H103.14C104.023 32.8604 104.74 33.5767 104.74 34.4604V85.6604Z" fill="black"/>
<path d="M99.94 42.4603C97.289 42.4603 95.14 40.3113 95.14 37.6603C95.14 36.7766 94.4236 36.0603 93.54 36.0603H26.34C25.4563 36.0603 24.74 36.7766 24.74 37.6603C24.74 40.3113 22.5909 42.4603 19.94 42.4603C19.0563 42.4603 18.34 43.1766 18.34 44.0603V76.0603C18.34 76.944 19.0563 77.6603 19.94 77.6603C22.5909 77.6603 24.74 79.8093 24.74 82.4603C24.74 83.344 25.4563 84.0603 26.34 84.0603H93.54C94.4236 84.0603 95.14 83.344 95.14 82.4603C95.14 79.8093 97.289 77.6603 99.94 77.6603C100.824 77.6603 101.54 76.944 101.54 76.0603V44.0603C101.54 43.1766 100.824 42.4603 99.94 42.4603ZM98.34 74.6203C95.1998 75.2663 92.746 77.7202 92.1 80.8603H27.78C27.1339 77.7202 24.6801 75.2663 21.54 74.6203V45.5003C24.6801 44.8543 27.1339 42.4004 27.78 39.2603H92.1C92.746 42.4004 95.1998 44.8543 98.34 45.5003V74.6203Z" fill="black"/>
<path d="M19.94 40.8604C20.8236 40.8604 21.54 40.1441 21.54 39.2604V36.0604C21.54 35.1768 20.8236 34.4604 19.94 34.4604C19.0563 34.4604 18.34 35.1768 18.34 36.0604V39.2604C18.34 40.1441 19.0563 40.8604 19.94 40.8604Z" fill="black"/>
<path d="M19.94 79.2605C19.0563 79.2605 18.34 79.9768 18.34 80.8605V84.0605C18.34 84.9442 19.0563 85.6605 19.94 85.6605C20.8236 85.6605 21.54 84.9442 21.54 84.0605V80.8605C21.54 79.9768 20.8236 79.2605 19.94 79.2605Z" fill="black"/>
<path d="M99.9405 34.4609C99.0568 34.4609 98.3405 35.1773 98.3405 36.0609V39.2609C98.3405 40.1446 99.0568 40.8609 99.9405 40.8609C100.824 40.8609 101.54 40.1446 101.54 39.2609V36.0609C101.54 35.1773 100.824 34.4609 99.9405 34.4609Z" fill="black"/>
<path d="M99.9405 79.2607C99.0568 79.2607 98.3405 79.9771 98.3405 80.8607V84.0607C98.3405 84.9444 99.0568 85.6607 99.9405 85.6607C100.824 85.6607 101.54 84.9444 101.54 84.0607V80.8607C101.54 79.9771 100.824 79.2607 99.9405 79.2607Z" fill="black"/>
<path d="M31.9399 50.4604C27.9031 50.4604 24.7399 54.678 24.7399 60.0604C24.7399 65.4428 27.9031 69.6604 31.9399 69.6604C35.9767 69.6604 39.1399 65.4428 39.1399 60.0604C39.1399 54.678 35.9767 50.4604 31.9399 50.4604ZM31.9399 66.4604C29.7719 66.4604 27.9399 63.5292 27.9399 60.0604C27.9399 56.5916 29.7719 53.6604 31.9399 53.6604C34.1079 53.6604 35.9399 56.5916 35.9399 60.0604C35.9399 63.5292 34.1079 66.4604 31.9399 66.4604Z" fill="black"/>
<path d="M59.94 42.4604C50.2198 42.4604 42.34 50.3402 42.34 60.0604C42.34 69.7807 50.2198 77.6604 59.94 77.6604C69.6602 77.6604 77.54 69.7807 77.54 60.0604C77.5285 50.345 69.6554 42.4719 59.94 42.4604ZM59.94 74.4604C51.9871 74.4604 45.54 68.0133 45.54 60.0604C45.54 52.1075 51.9871 45.6604 59.94 45.6604C67.8929 45.6604 74.34 52.1075 74.34 60.0604C74.3311 68.0097 67.8892 74.4516 59.94 74.4604Z" fill="black"/>
<path d="M87.9399 50.4604C83.9031 50.4604 80.7399 54.678 80.7399 60.0604C80.7399 65.4428 83.9031 69.6604 87.9399 69.6604C91.9767 69.6604 95.1399 65.4428 95.1399 60.0604C95.1399 54.678 91.9767 50.4604 87.9399 50.4604ZM87.9399 66.4604C85.7719 66.4604 83.9399 63.5292 83.9399 60.0604C83.9399 56.5916 85.7719 53.6604 87.9399 53.6604C90.1079 53.6604 91.9399 56.5916 91.9399 60.0604C91.9399 63.5292 90.1079 66.4604 87.9399 66.4604Z" fill="black"/>
<path d="M58.3392 52.0607C58.3392 52.9444 59.0556 53.6607 59.9392 53.6607C60.8229 53.6607 61.5392 52.9444 61.5392 52.0607C63.3065 52.0607 64.7392 53.4934 64.7392 55.2607C64.7392 56.1444 65.4556 56.8607 66.3392 56.8607C67.2229 56.8607 67.9392 56.1444 67.9392 55.2607C67.9392 51.7261 65.0738 48.8607 61.5392 48.8607C61.5392 47.9771 60.8229 47.2607 59.9392 47.2607C59.0556 47.2607 58.3392 47.9771 58.3392 48.8607C54.8046 48.8607 51.9392 51.7261 51.9392 55.2607C51.9392 58.7954 54.8046 61.6607 58.3392 61.6607H61.5392C63.3065 61.6607 64.7392 63.0934 64.7392 64.8607C64.7392 66.6281 63.3065 68.0607 61.5392 68.0607C61.5392 67.1771 60.8229 66.4607 59.9392 66.4607C59.0556 66.4607 58.3392 67.1771 58.3392 68.0607C56.5719 68.0607 55.1392 66.6281 55.1392 64.8607C55.1392 63.9771 54.4229 63.2607 53.5392 63.2607C52.6556 63.2607 51.9392 63.9771 51.9392 64.8607C51.9392 68.3954 54.8046 71.2607 58.3392 71.2607C58.3392 72.1444 59.0556 72.8607 59.9392 72.8607C60.8229 72.8607 61.5392 72.1444 61.5392 71.2607C65.0738 71.2607 67.9392 68.3954 67.9392 64.8607C67.9392 61.3261 65.0738 58.4607 61.5392 58.4607H58.3392C56.5719 58.4607 55.1392 57.0281 55.1392 55.2607C55.1392 53.4934 56.5719 52.0607 58.3392 52.0607Z" fill="black"/>
<path d="M28.9397 48.5099L31.9397 46.1099L34.9397 48.5099C35.6299 49.0622 36.6371 48.9505 37.1893 48.2603C37.7416 47.5702 37.6299 46.563 36.9397 46.0107L32.9397 42.8107C32.3552 42.3427 31.5243 42.3427 30.9397 42.8107L26.9397 46.0107C26.4933 46.368 26.2714 46.9363 26.3575 47.5015C26.4437 48.0668 26.8249 48.5431 27.3575 48.7511C27.8902 48.9591 28.4933 48.8672 28.9397 48.5099Z" fill="black"/>
<path d="M34.9398 71.6107L31.9398 74.0107L28.9398 71.6107C28.2496 71.0584 27.2424 71.1702 26.6902 71.8603C26.1379 72.5504 26.2496 73.5576 26.9398 74.1099L30.9398 77.3099C31.5243 77.7779 32.3552 77.7779 32.9398 77.3099L36.9398 74.1099C37.3862 73.7526 37.6081 73.1843 37.5219 72.6191C37.4358 72.0538 37.0546 71.5775 36.5219 71.3695C35.9893 71.1615 35.3862 71.2534 34.9398 71.6107Z" fill="black"/>
<path d="M84.9399 48.5099L87.9399 46.1099L90.9399 48.5099C91.3863 48.8672 91.9894 48.9591 92.522 48.7511C93.0547 48.5431 93.4359 48.0668 93.522 47.5015C93.6082 46.9363 93.3863 46.368 92.9399 46.0107L88.9399 42.8107C88.3553 42.3427 87.5244 42.3427 86.9399 42.8107L82.9399 46.0107C82.4934 46.368 82.2715 46.9363 82.3577 47.5015C82.4439 48.0668 82.825 48.5431 83.3577 48.7511C83.8903 48.9591 84.4934 48.8672 84.9399 48.5099Z" fill="black"/>
<path d="M90.9399 71.6109L87.9399 74.0109L84.9399 71.6109C84.4934 71.2536 83.8903 71.1617 83.3577 71.3697C82.825 71.5777 82.4439 72.054 82.3577 72.6193C82.2715 73.1845 82.4934 73.7528 82.9399 74.1101L86.9399 77.3101C87.5244 77.7781 88.3553 77.7781 88.9399 77.3101L92.9399 74.1101C93.3863 73.7528 93.6082 73.1845 93.522 72.6193C93.4359 72.054 93.0547 71.5777 92.522 71.3697C91.9894 71.1617 91.3863 71.2536 90.9399 71.6109Z" fill="black"/>
</g>
<defs>
<linearGradient id="paint0_linear_295_6570" x1="18.9996" y1="60" x2="99.9996" y2="60" gradientUnits="userSpaceOnUse">
<stop stop-color="#EE7900"/>
<stop offset="1" stop-color="#EE7900" stop-opacity="0"/>
</linearGradient>
<clipPath id="clip0_295_6570">
<rect width="96" height="96" fill="white" transform="translate(11.9401 12.0601)"/>
</clipPath>
</defs>
</svg>
