<svg width="120" height="120" viewBox="0 0 120 120" fill="none" xmlns="http://www.w3.org/2000/svg">
<g clip-path="url(#clip0_295_6627)">
<path d="M40 31H100V76L52.5 77L51.5 65L40 64V31Z" fill="url(#paint0_linear_295_6627)"/>
<rect x="95" y="37" width="12" height="8" fill="white"/>
<rect x="95" y="63" width="12" height="8" fill="white"/>
<circle cx="69" cy="54" r="12" fill="white"/>
<path d="M103.201 21.6003H36.0007C33.3498 21.6003 31.2007 23.7494 31.2007 26.4003V44.0003H15.2007C13.4334 44.0003 12.0007 45.433 12.0007 47.2003V50.4003C12.0039 50.9638 12.1575 51.5161 12.4455 52.0003C12.1575 52.4846 12.0039 53.0369 12.0007 53.6003V56.8003C12.0039 57.3638 12.1575 57.9161 12.4455 58.4003C12.1575 58.8846 12.0039 59.4369 12.0007 60.0003V63.2003C12.0039 63.7638 12.1575 64.3161 12.4455 64.8003C12.1575 65.2846 12.0039 65.8369 12.0007 66.4003V69.6003C12.0039 70.1638 12.1575 70.7161 12.4455 71.2003C12.1575 71.6846 12.0039 72.2369 12.0007 72.8003V76.0003C12.0039 76.5638 12.1575 77.1161 12.4455 77.6003C12.1575 78.0846 12.0039 78.6369 12.0007 79.2003V82.4003C12.0039 82.9638 12.1575 83.5161 12.4455 84.0003C12.1575 84.4846 12.0039 85.0369 12.0007 85.6003V88.8003C12.0039 89.3638 12.1575 89.9161 12.4455 90.4003C12.1575 90.8846 12.0039 91.4369 12.0007 92.0003V95.2003C12.0007 96.9677 13.4334 98.4003 15.2007 98.4003H31.2007C31.7642 98.3971 32.3165 98.2436 32.8007 97.9555C33.285 98.2436 33.8373 98.3971 34.4007 98.4003H50.4007C50.9642 98.3971 51.5165 98.2436 52.0007 97.9555C52.485 98.2436 53.0373 98.3971 53.6007 98.4003H69.6007C71.368 98.4003 72.8007 96.9677 72.8007 95.2003V92.0003C72.7975 91.4369 72.644 90.8846 72.3559 90.4003C72.644 89.9161 72.7975 89.3638 72.8007 88.8003V85.6003H84.0007V87.2003C84.0007 89.8513 86.1498 92.0003 88.8007 92.0003H98.4007C101.052 92.0003 103.201 89.8513 103.201 87.2003V85.6003C105.852 85.6003 108.001 83.4513 108.001 80.8003V26.4003C108.001 23.7494 105.852 21.6003 103.201 21.6003ZM104.801 69.6003H98.4007C97.5171 69.6003 96.8007 68.884 96.8007 68.0003V64.8003C96.8007 63.9167 97.5171 63.2003 98.4007 63.2003H104.801V69.6003ZM69.6007 82.4003H53.6007V79.2003H69.6007V82.4003ZM50.4007 88.8003H34.4007V85.6003H50.4007V88.8003ZM15.2007 85.6003H31.2007V88.8003H15.2007V85.6003ZM15.2007 79.2003H31.2007V82.4003H15.2007V79.2003ZM15.2007 72.8003H31.2007V76.0003H15.2007V72.8003ZM15.2007 66.4003H31.2007V69.6003H15.2007V66.4003ZM15.2007 60.0003H31.2007V63.2003H15.2007V60.0003ZM15.2007 53.6003H31.2007V56.8003H15.2007V53.6003ZM50.4007 66.4003V69.6003H34.4007V66.4003H50.4007ZM50.4007 76.0003H34.4007V72.8003H50.4007V76.0003ZM34.4007 82.4003V79.2003H50.4007V82.4003H34.4007ZM69.6007 76.0003H53.6007V72.8003C53.5975 72.2369 53.444 71.6846 53.1559 71.2003C53.444 70.7161 53.5975 70.1638 53.6007 69.6003V66.4003C53.6007 64.633 52.168 63.2003 50.4007 63.2003H40.8007V31.2003H98.4007V34.4003C95.7498 34.4003 93.6007 36.5494 93.6007 39.2003V42.4003C93.6007 45.0513 95.7498 47.2003 98.4007 47.2003V60.0003C95.7498 60.0003 93.6007 62.1494 93.6007 64.8003V68.0003C93.6007 70.6513 95.7498 72.8003 98.4007 72.8003V76.0003H69.6007ZM104.801 44.0003H98.4007C97.5171 44.0003 96.8007 43.284 96.8007 42.4003V39.2003C96.8007 38.3167 97.5171 37.6003 98.4007 37.6003H104.801V44.0003ZM101.601 60.0003V47.2003H104.801V60.0003H101.601ZM34.4007 26.4003C34.4007 25.5167 35.1171 24.8003 36.0007 24.8003H103.201C104.084 24.8003 104.801 25.5167 104.801 26.4003V34.4003H101.601V31.2003C101.601 29.433 100.168 28.0003 98.4007 28.0003H40.8007C39.0334 28.0003 37.6007 29.433 37.6007 31.2003V63.2003H34.4007V26.4003ZM15.2007 47.2003H31.2007V50.4003H15.2007V47.2003ZM15.2007 95.2003V92.0003H31.2007V95.2003H15.2007ZM34.4007 95.2003V92.0003H50.4007V95.2003H34.4007ZM53.6007 95.2003V92.0003H69.6007V95.2003H53.6007ZM69.6007 88.8003H53.6007V85.6003H69.6007V88.8003ZM100.001 87.2003C100.001 88.084 99.2844 88.8003 98.4007 88.8003H88.8007C87.9171 88.8003 87.2007 88.084 87.2007 87.2003V85.6003H100.001V87.2003ZM103.201 82.4003H72.8007V79.2003H98.4007C100.168 79.2003 101.601 77.7677 101.601 76.0003V72.8003H104.801V80.8003C104.801 81.684 104.084 82.4003 103.201 82.4003Z" fill="black"/>
<path d="M85.5998 52.0007H83.9054C83.7437 50.5656 83.3661 49.1631 82.7854 47.8407L84.2542 46.9927C84.7533 46.709 85.0621 46.1795 85.0633 45.6053C85.0646 45.0312 84.7581 44.5004 84.2603 44.2144C83.7624 43.9284 83.1495 43.9312 82.6542 44.2215L81.1726 45.0759C80.3157 43.9173 79.2912 42.8928 78.1326 42.0359L78.987 40.5543C79.4217 39.7898 79.1577 38.8177 78.3961 38.3779C77.6344 37.9381 76.6606 38.1956 76.2158 38.9543L75.3678 40.4231C74.0458 39.8414 72.6431 39.4638 71.2078 39.3031V37.6007C71.2078 36.7171 70.4914 36.0007 69.6078 36.0007C68.7241 36.0007 68.0078 36.7171 68.0078 37.6007V39.2951C66.5724 39.4558 65.1697 39.8334 63.8478 40.4151L62.9998 38.9463C62.716 38.4472 62.1865 38.1384 61.6124 38.1371C61.0382 38.1359 60.5074 38.4424 60.2214 38.9402C59.9355 39.4381 59.9382 40.051 60.2286 40.5463L61.083 42.0279C59.9244 42.8848 58.8998 43.9093 58.043 45.0679L56.5614 44.2135C55.7968 43.7788 54.8247 44.0427 54.3849 44.8044C53.9451 45.5661 54.2026 46.5399 54.9614 46.9847L56.4302 47.8327C55.8494 49.1551 55.4718 50.5576 55.3102 51.9927H53.5998C52.7161 51.9927 51.9998 52.7091 51.9998 53.5927C51.9998 54.4764 52.7161 55.1927 53.5998 55.1927H55.2942C55.4558 56.6279 55.8334 58.0304 56.4142 59.3527L54.9454 60.2007C54.4462 60.4845 54.1374 61.014 54.1362 61.5881C54.1349 62.1623 54.4414 62.6931 54.9392 62.9791C55.4371 63.265 56.05 63.2623 56.5454 62.9719L58.027 62.1175C58.8838 63.2761 59.9084 64.3007 61.067 65.1575L60.2126 66.6391C59.9222 67.1344 59.9195 67.7474 60.2054 68.2452C60.4914 68.7431 61.0222 69.0496 61.5964 69.0483C62.1705 69.0471 62.7 68.7383 62.9838 68.2391L63.8318 66.7703C65.1537 67.3521 66.5564 67.7297 67.9918 67.8903V69.6007C67.9918 70.4844 68.7081 71.2007 69.5918 71.2007C70.4754 71.2007 71.1918 70.4844 71.1918 69.6007V67.9063C72.6271 67.7457 74.0298 67.3681 75.3518 66.7863L76.1998 68.2551C76.4835 68.7543 77.013 69.0631 77.5871 69.0643C78.1613 69.0656 78.6921 68.7591 78.9781 68.2612C79.264 67.7634 79.2613 67.1504 78.971 66.6551L78.1166 65.1735C79.2752 64.3167 80.2997 63.2921 81.1566 62.1335L82.6382 62.9879C83.1335 63.2783 83.7464 63.281 84.2443 62.9951C84.7421 62.7091 85.0486 62.1783 85.0473 61.6041C85.0461 61.03 84.7373 60.5005 84.2382 60.2167L82.7694 59.3687C83.3501 58.0464 83.7277 56.6439 83.8894 55.2087H85.5998C86.4834 55.2087 87.1998 54.4924 87.1998 53.6087C87.1998 52.7251 86.4834 52.0087 85.5998 52.0087V52.0007ZM69.5998 64.8007C63.4142 64.8007 58.3998 59.7863 58.3998 53.6007C58.3998 47.4151 63.4142 42.4007 69.5998 42.4007C75.7853 42.4007 80.7998 47.4151 80.7998 53.6007C80.7927 59.7834 75.7824 64.7937 69.5998 64.8007Z" fill="black"/>
<path d="M69.6007 48.8008C70.4844 48.8008 71.2007 48.0845 71.2007 47.2008C71.2007 46.3172 70.4844 45.6008 69.6007 45.6008C68.7171 45.6008 68.0007 46.3172 68.0007 47.2008C68.0007 48.0845 68.7171 48.8008 69.6007 48.8008Z" fill="black"/>
</g>
<defs>
<linearGradient id="paint0_linear_295_6627" x1="100" y1="51.5" x2="40" y2="51.5" gradientUnits="userSpaceOnUse">
<stop stop-color="#EE7900"/>
<stop offset="0.472213" stop-color="#EE7900" stop-opacity="0.6"/>
<stop offset="1.0001" stop-color="#EE7900" stop-opacity="0"/>
</linearGradient>
<clipPath id="clip0_295_6627">
<rect width="96" height="96" fill="white" transform="translate(12 12)"/>
</clipPath>
</defs>
</svg>
