<svg width="120" height="120" viewBox="0 0 120 120" fill="none" xmlns="http://www.w3.org/2000/svg">
<g clip-path="url(#clip0_295_6613)">
<path d="M49.5 42C47.1 44.4 43.1667 50 41.5 52.5L40.5 72.5L50.5 73.5L54.5 78.5V97H69L91.5 96L100 92.5L106 81.5L104.5 62.5L93 43.5L80.5 31.5L69.5 33.5L61 31.5C58.1667 34 51.9 39.6 49.5 42Z" fill="url(#paint0_linear_295_6613)"/>
<path d="M98.6147 86.6455C100.511 84.038 101.539 80.8999 101.552 77.6759C101.573 77.2519 101.424 76.8372 101.139 76.5231C100.853 76.2089 100.455 76.021 100.031 76.0007C99.1514 75.9678 98.4071 76.6439 98.3555 77.5223C98.3676 80.0775 97.5805 82.5725 96.1043 84.6583C92.9827 88.6007 87.0595 88.8007 85.9027 88.8007C85.0191 88.8007 84.3027 89.517 84.3027 90.4007C84.3027 91.2843 85.0191 92.0007 85.9027 92.0007C87.3171 92.0007 94.5763 91.7431 98.6147 86.6455Z" fill="black"/>
<path d="M66.4002 66.4007C66.4002 65.517 65.6839 64.8007 64.8002 64.8007C63.9165 64.8007 63.2002 65.517 63.2002 66.4007C63.2002 69.9353 66.0656 72.8007 69.6002 72.8007V74.4007C69.6002 75.2843 70.3165 76.0007 71.2002 76.0007C72.0839 76.0007 72.8002 75.2843 72.8002 74.4007V72.8007C76.3348 72.8007 79.2002 69.9353 79.2002 66.4007C79.2002 62.8661 76.3348 60.0007 72.8002 60.0007V53.6007C74.5675 53.6007 76.0002 55.0334 76.0002 56.8007C76.0002 57.6843 76.7165 58.4007 77.6002 58.4007C78.4839 58.4007 79.2002 57.6843 79.2002 56.8007C79.2002 53.2661 76.3348 50.4007 72.8002 50.4007V48.8007C72.8002 47.917 72.0839 47.2007 71.2002 47.2007C70.3165 47.2007 69.6002 47.917 69.6002 48.8007V50.4007C66.0656 50.4007 63.2002 53.2661 63.2002 56.8007C63.2002 60.3353 66.0656 63.2007 69.6002 63.2007V69.6007C67.8329 69.6007 66.4002 68.168 66.4002 66.4007ZM66.4002 56.8007C66.4002 55.0334 67.8329 53.6007 69.6002 53.6007V60.0007C67.8329 60.0007 66.4002 58.568 66.4002 56.8007ZM72.8002 63.2007C74.5675 63.2007 76.0002 64.6334 76.0002 66.4007C76.0002 68.168 74.5675 69.6007 72.8002 69.6007V63.2007Z" fill="black"/>
<path d="M106.662 66.0348C102.72 49.2812 93.9552 39.574 87.6256 34.5036C95.5632 35.102 98.1184 38.4044 98.1936 38.5036C98.6949 39.2192 99.6775 39.4003 100.401 38.9106C101.124 38.4208 101.321 37.4412 100.843 36.71C100.728 36.5372 98.5056 33.3628 92.0432 31.91C93.6956 30.5516 94.6732 28.5398 94.72 26.4012C94.5061 22.8555 92.0377 19.8488 88.6016 18.9484C88.7425 17.7926 88.8141 16.6295 88.816 15.4652C88.8143 14.3926 88.2753 13.3921 87.3804 12.8007C86.4855 12.2093 85.3539 12.1055 84.3664 12.5244C83.5586 12.8901 82.8084 13.3714 82.1392 13.9532C81.354 14.7601 80.2731 15.211 79.1472 15.2012C78.0231 15.2091 76.9444 14.7584 76.16 13.9532C73.3403 11.3489 68.9926 11.3489 66.1728 13.9532C65.3875 14.7619 64.3048 15.213 63.1776 15.2012C62.0537 15.2105 60.9749 14.7596 60.192 13.9532C59.5246 13.3727 58.7765 12.8919 57.9712 12.526C56.9844 12.1099 55.8549 12.2151 54.9618 12.8062C54.0688 13.3972 53.5306 14.3959 53.528 15.4668C53.528 19.4476 54.3152 26.5484 59.2992 31.3164C56.6799 32.9091 54.2336 34.7704 52 36.87V24.8012C52 21.1532 46.84 18.4012 40 18.4012C33.16 18.4012 28 21.1532 28 24.8012V40.9212C22.3888 41.4812 18.4 44.0012 18.4 47.2012V87.8972C14.5344 88.9356 12 91.0412 12 93.6012V101.601C12 105.249 17.16 108.001 24 108.001C30.1168 108.001 34.88 105.798 35.8192 102.721C38.5811 104.184 41.6765 104.9 44.8 104.801C51.64 104.801 56.8 102.049 56.8 98.4012V77.6012C56.8 73.9532 51.64 71.2012 44.8 71.2012C43.9985 71.2007 43.1975 71.2407 42.4 71.3212V47.2012C42.4 43.6972 37.6368 41.0284 31.2 40.822V29.2316C33.922 30.6151 36.948 31.2924 40 31.2012C43.052 31.2924 46.078 30.6151 48.8 29.2316V40.1436C47.7456 41.3228 46.6864 42.6076 45.6416 44.0316C45.1632 44.744 45.332 45.7071 46.0243 46.2143C46.7166 46.7215 47.6857 46.5922 48.2208 45.9212C49.2484 44.53 50.3497 43.1948 51.52 41.9212C51.5328 41.9068 51.544 41.8924 51.5568 41.8796C54.6111 38.4852 58.1978 35.6108 62.176 33.3692C62.9603 33.7475 63.7901 34.0234 64.6448 34.19L60.52 38.0396C59.8741 38.6431 59.8397 39.656 60.4432 40.302C61.0467 40.9479 62.0597 40.9823 62.7056 40.3788L69.1056 34.4092H69.616V39.2092C69.616 40.0928 70.3323 40.8092 71.216 40.8092C72.0997 40.8092 72.816 40.0928 72.816 39.2092V34.4012H73.3264L79.7264 40.3708C80.1443 40.7612 80.7387 40.8991 81.2857 40.7324C81.8328 40.5657 82.2493 40.1199 82.3785 39.5628C82.5077 39.0057 82.3299 38.422 81.912 38.0316L77.76 34.166C78.6096 33.9978 79.434 33.7209 80.2128 33.342C84.4416 35.63 98.3424 44.67 103.549 66.7676C105.813 76.3868 104.997 83.7452 101.125 88.6332C96.1712 94.8812 87.576 95.2012 85.904 95.2012H63.2C62.3163 95.2012 61.6 95.9175 61.6 96.8012C61.6 97.6849 62.3163 98.4012 63.2 98.4012H85.904C88.624 98.4012 97.912 97.8396 103.632 90.6204C108.141 84.926 109.162 76.654 106.662 66.0348ZM24 90.4012C29.2912 90.4012 32.8 92.3212 32.8 93.6012C32.8 94.8812 29.2912 96.8012 24 96.8012C18.7088 96.8012 15.2 94.8812 15.2 93.6012C15.2 92.3212 18.7088 90.4012 24 90.4012ZM24 104.801C18.7088 104.801 15.2 102.881 15.2 101.601V98.0316C17.922 99.4151 20.948 100.092 24 100.001C27.052 100.092 30.078 99.4151 32.8 98.0316V101.601C32.8 102.881 29.2912 104.801 24 104.801ZM44.8 101.601C39.5088 101.601 36 99.6812 36 98.4012V82.0316C38.722 83.4151 41.748 84.0924 44.8 84.0012C47.852 84.0924 50.878 83.4151 53.6 82.0316V98.4012C53.6 99.6812 50.0912 101.601 44.8 101.601ZM53.6 77.6012C53.6 78.8812 50.0912 80.8012 44.8 80.8012C39.5088 80.8012 36 78.8812 36 77.6012C36 76.3212 39.5088 74.4012 44.8 74.4012C50.0912 74.4012 53.6 76.3212 53.6 77.6012ZM32.8 77.6012V89.1708C30.078 87.7873 27.052 87.11 24 87.2012C23.1985 87.2007 22.3975 87.2407 21.6 87.3212V51.6316C24.322 53.0151 27.348 53.6924 30.4 53.6012C33.452 53.6924 36.478 53.0151 39.2 51.6316V71.8972C35.3344 72.9356 32.8 75.0412 32.8 77.6012ZM39.2 47.2012C39.2 48.4812 35.6912 50.4012 30.4 50.4012C25.1088 50.4012 21.6 48.4812 21.6 47.2012C21.6 45.9212 25.1088 44.0012 30.4 44.0012C35.6912 44.0012 39.2 45.9212 39.2 47.2012ZM40 28.0012C34.7088 28.0012 31.2 26.0812 31.2 24.8012C31.2 23.5212 34.7088 21.6012 40 21.6012C45.2912 21.6012 48.8 23.5212 48.8 24.8012C48.8 26.0812 45.2912 28.0012 40 28.0012ZM91.52 26.4012C91.52 29.0236 88.68 31.1756 85.12 31.2012C84.5245 31.1974 83.9312 31.1293 83.3504 30.998C85.6726 28.5205 87.2867 25.4647 88.024 22.15C89.9499 22.7175 91.3352 24.4019 91.52 26.4012ZM58.1888 16.4492C59.54 17.7153 61.3259 18.4141 63.1776 18.4012C65.0304 18.4151 66.8177 17.7162 68.1696 16.4492C68.9605 15.6507 70.0377 15.2015 71.1616 15.2015C72.2855 15.2015 73.3627 15.6507 74.1536 16.4492C75.5056 17.7172 77.2937 18.4162 79.1472 18.4012C81.0006 18.4155 82.7885 17.7166 84.1408 16.4492C84.5842 16.0573 85.0776 15.7259 85.608 15.4636C85.608 18.4348 85.056 25.7804 79.9008 29.8076C78.741 30.6786 77.3351 31.1598 75.8848 31.182C77.2699 28.803 78.3662 26.2672 79.1504 23.6284C79.3036 23.0773 79.1512 22.4864 78.7506 22.0782C78.3499 21.67 77.762 21.5066 77.2082 21.6494C76.6543 21.7923 76.2188 22.2197 76.0656 22.7708C75.1795 25.7784 73.8171 28.6246 72.0304 31.2012H70.3856C68.6024 28.6223 67.2399 25.7768 66.3488 22.7708C66.1115 21.9194 65.229 21.4215 64.3776 21.6588C63.5262 21.8961 63.0283 22.7786 63.2656 23.63C64.0506 26.2711 65.1479 28.809 66.5344 31.19C65.0551 31.1824 63.6176 30.6982 62.4352 29.8092C57.28 25.7836 56.728 18.438 56.728 15.4764C57.2582 15.7304 57.75 16.0579 58.1888 16.4492Z" fill="black"/>
<path d="M98.6147 86.6453C100.511 84.0379 101.539 80.8998 101.552 77.6757C101.573 77.2518 101.424 76.8371 101.139 76.5229C100.853 76.2088 100.455 76.0209 100.031 76.0005C99.1521 75.9694 98.4088 76.6445 98.3555 77.5221C98.3676 80.0774 97.5805 82.5724 96.1043 84.6581C92.9827 88.6005 87.0595 88.8005 85.9027 88.8005C85.0191 88.8005 84.3027 89.5169 84.3027 90.4005C84.3027 91.2842 85.0191 92.0005 85.9027 92.0005C87.3171 92.0005 94.5763 91.7429 98.6147 86.6453Z" fill="black"/>
</g>
<defs>
<linearGradient id="paint0_linear_295_6613" x1="103.5" y1="93.5" x2="53" y2="44.5" gradientUnits="userSpaceOnUse">
<stop stop-color="#EE7900"/>
<stop offset="1" stop-color="#EE7900" stop-opacity="0"/>
</linearGradient>
<clipPath id="clip0_295_6613">
<rect width="96" height="96" fill="white" transform="translate(12 12)"/>
</clipPath>
</defs>
</svg>
