<svg width="120" height="120" viewBox="0 0 120 120" fill="none" xmlns="http://www.w3.org/2000/svg">
<circle cx="84" cy="84" r="19" fill="url(#paint0_linear_295_6428)"/>
<path fill-rule="evenodd" clip-rule="evenodd" d="M38 50.4C38 49.234 37.536 48.114 36.712 47.288C35.886 46.464 34.766 46 33.6 46H30.4C29.234 46 28.114 46.464 27.288 47.288C26.464 48.114 26 49.234 26 50.4V53.6C26 54.766 26.464 55.886 27.288 56.712C28.114 57.536 29.234 58 30.4 58H33.6C34.766 58 35.886 57.536 36.712 56.712C37.536 55.886 38 54.766 38 53.6V50.4ZM34 50.4V53.6C34 53.706 33.958 53.808 33.882 53.882C33.808 53.958 33.706 54 33.6 54H30.4C30.294 54 30.192 53.958 30.118 53.882C30.042 53.808 30 53.706 30 53.6V50.4C30 50.294 30.042 50.192 30.118 50.118C30.192 50.042 30.294 50 30.4 50H33.6C33.706 50 33.808 50.042 33.882 50.118C33.958 50.192 34 50.294 34 50.4Z" fill="black"/>
<path fill-rule="evenodd" clip-rule="evenodd" d="M38 66.4C38 65.234 37.536 64.114 36.712 63.288C35.886 62.464 34.766 62 33.6 62H30.4C29.234 62 28.114 62.464 27.288 63.288C26.464 64.114 26 65.234 26 66.4V69.6C26 70.766 26.464 71.886 27.288 72.712C28.114 73.536 29.234 74 30.4 74H33.6C34.766 74 35.886 73.536 36.712 72.712C37.536 71.886 38 70.766 38 69.6V66.4ZM34 66.4V69.6C34 69.706 33.958 69.808 33.882 69.882C33.808 69.958 33.706 70 33.6 70H30.4C30.294 70 30.192 69.958 30.118 69.882C30.042 69.808 30 69.706 30 69.6V66.4C30 66.294 30.042 66.192 30.118 66.118C30.192 66.042 30.294 66 30.4 66H33.6C33.706 66 33.808 66.042 33.882 66.118C33.958 66.192 34 66.294 34 66.4Z" fill="black"/>
<path fill-rule="evenodd" clip-rule="evenodd" d="M38 82.4C38 81.234 37.536 80.114 36.712 79.288C35.886 78.464 34.766 78 33.6 78H30.4C29.234 78 28.114 78.464 27.288 79.288C26.464 80.114 26 81.234 26 82.4V85.6C26 86.766 26.464 87.886 27.288 88.712C28.114 89.536 29.234 90 30.4 90H33.6C34.766 90 35.886 89.536 36.712 88.712C37.536 87.886 38 86.766 38 85.6V82.4ZM34 82.4V85.6C34 85.706 33.958 85.808 33.882 85.882C33.808 85.958 33.706 86 33.6 86H30.4C30.294 86 30.192 85.958 30.118 85.882C30.042 85.808 30 85.706 30 85.6V82.4C30 82.294 30.042 82.192 30.118 82.118C30.192 82.042 30.294 82 30.4 82H33.6C33.706 82 33.808 82.042 33.882 82.118C33.958 82.192 34 82.294 34 82.4Z" fill="black"/>
<path fill-rule="evenodd" clip-rule="evenodd" d="M54 50.4C54 49.234 53.536 48.114 52.712 47.288C51.886 46.464 50.766 46 49.6 46H46.4C45.234 46 44.114 46.464 43.288 47.288C42.464 48.114 42 49.234 42 50.4V53.6C42 54.766 42.464 55.886 43.288 56.712C44.114 57.536 45.234 58 46.4 58H49.6C50.766 58 51.886 57.536 52.712 56.712C53.536 55.886 54 54.766 54 53.6V50.4ZM50 50.4V53.6C50 53.706 49.958 53.808 49.882 53.882C49.808 53.958 49.706 54 49.6 54H46.4C46.294 54 46.192 53.958 46.118 53.882C46.042 53.808 46 53.706 46 53.6V50.4C46 50.294 46.042 50.192 46.118 50.118C46.192 50.042 46.294 50 46.4 50H49.6C49.706 50 49.808 50.042 49.882 50.118C49.958 50.192 50 50.294 50 50.4Z" fill="black"/>
<path fill-rule="evenodd" clip-rule="evenodd" d="M54 66.4C54 65.234 53.536 64.114 52.712 63.288C51.886 62.464 50.766 62 49.6 62H46.4C45.234 62 44.114 62.464 43.288 63.288C42.464 64.114 42 65.234 42 66.4V69.6C42 70.766 42.464 71.886 43.288 72.712C44.114 73.536 45.234 74 46.4 74H49.6C50.766 74 51.886 73.536 52.712 72.712C53.536 71.886 54 70.766 54 69.6V66.4ZM50 66.4V69.6C50 69.706 49.958 69.808 49.882 69.882C49.808 69.958 49.706 70 49.6 70H46.4C46.294 70 46.192 69.958 46.118 69.882C46.042 69.808 46 69.706 46 69.6V66.4C46 66.294 46.042 66.192 46.118 66.118C46.192 66.042 46.294 66 46.4 66H49.6C49.706 66 49.808 66.042 49.882 66.118C49.958 66.192 50 66.294 50 66.4Z" fill="black"/>
<path fill-rule="evenodd" clip-rule="evenodd" d="M54 82.4C54 81.234 53.536 80.114 52.712 79.288C51.886 78.464 50.766 78 49.6 78H46.4C45.234 78 44.114 78.464 43.288 79.288C42.464 80.114 42 81.234 42 82.4V85.6C42 86.766 42.464 87.886 43.288 88.712C44.114 89.536 45.234 90 46.4 90H49.6C50.766 90 51.886 89.536 52.712 88.712C53.536 87.886 54 86.766 54 85.6V82.4ZM50 82.4V85.6C50 85.706 49.958 85.808 49.882 85.882C49.808 85.958 49.706 86 49.6 86H46.4C46.294 86 46.192 85.958 46.118 85.882C46.042 85.808 46 85.706 46 85.6V82.4C46 82.294 46.042 82.192 46.118 82.118C46.192 82.042 46.294 82 46.4 82H49.6C49.706 82 49.808 82.042 49.882 82.118C49.958 82.192 50 82.294 50 82.4Z" fill="black"/>
<path fill-rule="evenodd" clip-rule="evenodd" d="M70 50.4C70 49.234 69.536 48.114 68.712 47.288C67.886 46.464 66.766 46 65.6 46H62.4C61.234 46 60.114 46.464 59.288 47.288C58.464 48.114 58 49.234 58 50.4V53.6C58 54.766 58.464 55.886 59.288 56.712C60.114 57.536 61.234 58 62.4 58H65.6C66.766 58 67.886 57.536 68.712 56.712C69.536 55.886 70 54.766 70 53.6V50.4ZM66 50.4V53.6C66 53.706 65.958 53.808 65.882 53.882C65.808 53.958 65.706 54 65.6 54H62.4C62.294 54 62.192 53.958 62.118 53.882C62.042 53.808 62 53.706 62 53.6V50.4C62 50.294 62.042 50.192 62.118 50.118C62.192 50.042 62.294 50 62.4 50H65.6C65.706 50 65.808 50.042 65.882 50.118C65.958 50.192 66 50.294 66 50.4Z" fill="black"/>
<path fill-rule="evenodd" clip-rule="evenodd" d="M86 50.4C86 49.234 85.536 48.114 84.712 47.288C83.886 46.464 82.766 46 81.6 46H78.4C77.234 46 76.114 46.464 75.288 47.288C74.464 48.114 74 49.234 74 50.4V53.6C74 54.766 74.464 55.886 75.288 56.712C76.114 57.536 77.234 58 78.4 58H81.6C82.766 58 83.886 57.536 84.712 56.712C85.536 55.886 86 54.766 86 53.6V50.4ZM82 50.4V53.6C82 53.706 81.958 53.808 81.882 53.882C81.808 53.958 81.706 54 81.6 54H78.4C78.294 54 78.192 53.958 78.118 53.882C78.042 53.808 78 53.706 78 53.6V50.4C78 50.294 78.042 50.192 78.118 50.118C78.192 50.042 78.294 50 78.4 50H81.6C81.706 50 81.808 50.042 81.882 50.118C81.958 50.192 82 50.294 82 50.4Z" fill="black"/>
<path fill-rule="evenodd" clip-rule="evenodd" d="M67.034 98H24C21.348 98 18.804 96.946 16.928 95.072C15.054 93.196 14 90.652 14 88V32C14 26.478 18.478 22 24 22H30V20C30 16.686 32.686 14 36 14C39.314 14 42 16.686 42 20V22H70V20C70 16.686 72.686 14 76 14C79.314 14 82 16.686 82 20V22H88C93.522 22 98 26.478 98 32V67.034C102.886 71.072 106 77.174 106 84C106 96.142 96.142 106 84 106C77.174 106 71.072 102.886 67.034 98ZM84 66C93.934 66 102 74.066 102 84C102 93.934 93.934 102 84 102C74.066 102 66 93.934 66 84C66 74.066 74.066 66 84 66ZM94 64.402V42H18V88C18 89.592 18.632 91.118 19.758 92.242C20.882 93.368 22.408 94 24 94H64.402C62.866 91 62 87.6 62 84C62 71.858 71.858 62 84 62C87.6 62 91 62.866 94 64.402ZM82 26V28C82 31.314 79.314 34 76 34C72.686 34 70 31.314 70 28V26H42V28C42 31.314 39.314 34 36 34C32.686 34 30 31.314 30 28V26H24C20.686 26 18 28.686 18 32V38H94V32C94 28.686 91.314 26 88 26H82ZM78 20V28C78 29.104 77.104 30 76 30C74.896 30 74 29.104 74 28V20C74 18.896 74.896 18 76 18C77.104 18 78 18.896 78 20ZM38 20V28C38 29.104 37.104 30 36 30C34.896 30 34 29.104 34 28V20C34 18.896 34.896 18 36 18C37.104 18 38 18.896 38 20Z" fill="black"/>
<path d="M80.1679 83.25V86.2045H73.3497V83.25H80.1679ZM88.3964 92.1989C87.279 92.1989 86.287 92.0024 85.4206 91.6094C84.5588 91.2116 83.8794 90.6648 83.3822 89.9688C82.8898 89.2727 82.6388 88.4725 82.6294 87.5682H86.4646C86.4788 88.0701 86.6729 88.4702 87.047 88.7685C87.4258 89.0668 87.8756 89.2159 88.3964 89.2159C88.7989 89.2159 89.154 89.1307 89.4618 88.9602C89.7695 88.785 90.011 88.5388 90.1862 88.2216C90.3614 87.9044 90.4466 87.535 90.4419 87.1136C90.4466 86.6875 90.3614 86.3182 90.1862 86.0057C90.011 85.6884 89.7695 85.4446 89.4618 85.2741C89.154 85.099 88.7989 85.0114 88.3964 85.0114C87.9797 85.0114 87.5939 85.1132 87.2387 85.3168C86.8884 85.5156 86.6303 85.7926 86.4646 86.1477L82.9987 85.4659L83.5669 77.4545H93.3396V80.608H86.8055L86.5214 83.8182H86.6066C86.8339 83.3778 87.2269 83.0133 87.7856 82.7244C88.3443 82.4309 88.993 82.2841 89.7316 82.2841C90.5981 82.2841 91.3699 82.4853 92.047 82.8878C92.7288 83.2902 93.2662 83.8466 93.6592 84.5568C94.0569 85.2623 94.2534 86.0767 94.2487 87C94.2534 88.0133 94.0119 88.9129 93.5243 89.6989C93.0413 90.4801 92.3618 91.0933 91.4859 91.5384C90.61 91.9787 89.5801 92.1989 88.3964 92.1989Z" fill="black"/>
<defs>
<linearGradient id="paint0_linear_295_6428" x1="65" y1="82.0612" x2="103.008" y2="81.6835" gradientUnits="userSpaceOnUse">
<stop stop-color="#EE7900"/>
<stop offset="1" stop-color="#EE7900" stop-opacity="0"/>
</linearGradient>
</defs>
</svg>
