<svg width="120" height="120" viewBox="0 0 120 120" fill="none" xmlns="http://www.w3.org/2000/svg">
<g clip-path="url(#clip0_295_6696)">
<rect x="12.9999" y="73" width="93" height="29" fill="url(#paint0_linear_295_6696)"/>
<path d="M46.183 62.5095V50.8076C46.183 49.5152 45.1316 48.4639 43.8392 48.4639H28.6401C27.3476 48.4639 26.2963 49.5152 26.2963 50.8076V62.5095C26.2963 63.8019 27.3476 64.8532 28.6401 64.8532H43.8392C45.1315 64.8532 46.183 63.8017 46.183 62.5095ZM43.3705 62.0407H29.1088V51.2764H43.3705V62.0407Z" fill="black"/>
<path d="M104.719 71.9758H99.6176V45.1905C99.6176 44.0636 99.1789 43.0042 98.382 42.2073L76.2692 20.0947C75.4723 19.2978 74.4131 18.8589 73.2861 18.8589H46.7141C45.5871 18.8589 44.5277 19.2978 43.731 20.0945L38.3179 25.5076C37.7687 26.0568 37.7687 26.9473 38.3179 27.4963C38.8671 28.0455 39.7575 28.0455 40.3065 27.4963L45.7196 22.0831C45.9851 21.8174 46.3382 21.6714 46.7139 21.6714H71.0557L50.1081 42.6193H25.1837L35.6664 32.1367C36.2156 31.5875 36.2156 30.6971 35.6664 30.1481C35.1172 29.5987 34.2268 29.5989 33.6778 30.1481L21.6184 42.2075C20.8215 43.0044 20.3827 44.0638 20.3827 45.1906V71.976H15.2812C13.4721 71.976 12 73.448 12 75.2572V100.658C12 102.467 13.4721 103.939 15.2812 103.939H89.4375C90.2141 103.939 90.8437 103.31 90.8437 102.533C90.8437 101.756 90.2141 101.127 89.4375 101.127H66.8576V93.3723L72.8801 88.4958C73.4323 88.0486 73.749 87.3849 73.749 86.6743V81.1721L80.3192 74.7885H104.719C104.977 74.7885 105.187 74.9988 105.187 75.2572V87.1383H101.282C101.156 87.1383 101.039 87.0896 100.95 87.0011L97.2347 83.2854C96.615 82.6657 95.7909 82.3245 94.9144 82.3245H86.0226C85.2459 82.3245 84.6163 82.9541 84.6163 83.7307C84.6163 84.5073 85.2459 85.137 86.0226 85.137H94.9144C95.0396 85.137 95.1574 85.1857 95.2459 85.2742L98.9616 88.9901C99.5814 89.6098 100.405 89.951 101.282 89.951H105.187V100.658C105.187 100.917 104.977 101.127 104.719 101.127H96C95.2234 101.127 94.5937 101.757 94.5937 102.533C94.5937 103.31 95.2234 103.939 96 103.939H104.719C106.528 103.939 108 102.467 108 100.658V75.257C108 73.4478 106.528 71.9758 104.719 71.9758ZM23.1949 45.4318H49.2842V71.9758H23.1949V45.4318ZM64.0451 101.127H15.2812C15.0229 101.127 14.8125 100.916 14.8125 100.658V87.482H19.6237C20.5001 87.482 21.324 87.1408 21.9441 86.5211L25.1132 83.352C25.2019 83.2633 25.3196 83.2145 25.4447 83.2145H32.7433C33.5199 83.2145 34.1496 82.5849 34.1496 81.8083C34.1496 81.0316 33.5199 80.402 32.7433 80.402H25.4447C24.5685 80.402 23.7444 80.7433 23.1246 81.3629L19.9554 84.5323C19.8667 84.621 19.749 84.6697 19.6237 84.6697H14.8125V75.2572C14.8125 74.9988 15.0229 74.7885 15.2812 74.7885H43.8937L48.7196 80.1382V84.345C48.7196 85.6374 49.7709 86.6887 51.0634 86.6887H60.4161L64.0451 93.0733V101.127ZM71.6471 79.2928C71.1954 79.7315 70.9363 80.3443 70.9363 80.9739V86.4506L65.8547 90.5653L62.7264 85.0616C62.3107 84.3303 61.53 83.876 60.6887 83.876H51.5321V79.9578C51.5321 79.3768 51.3178 78.8193 50.9286 78.3879L47.6814 74.7883H76.2831L71.6471 79.2928ZM90.8437 71.9758V50.8079C90.8437 49.5155 89.7924 48.4642 88.5 48.4642H74.6379C73.3455 48.4642 72.2942 49.5155 72.2942 50.8079V55.3925C72.2942 56.1691 72.9238 56.7988 73.7004 56.7988C74.4771 56.7988 75.1067 56.1691 75.1067 55.3925V51.2767H88.0312V71.9758H75.1067V61.955C75.1067 61.1784 74.4771 60.5488 73.7004 60.5488C72.9238 60.5488 72.2942 61.1784 72.2942 61.955V71.9758H52.0967V44.6081L74.4508 22.2538L96.3932 44.1961C96.6589 44.4618 96.8051 44.8149 96.8051 45.1905V71.9758H90.8437Z" fill="black"/>
<path d="M14.9492 49.2886C15.7258 49.2886 16.3555 48.659 16.3555 47.8823V42.0213C16.3555 41.896 16.4042 41.7785 16.4927 41.6898L25.0399 33.1426C25.6596 32.5229 26.0008 31.6988 26.0008 30.8225V25.012C26.0008 24.887 26.0496 24.7692 26.1381 24.6805L32.5827 18.236C33.1318 17.6868 33.1318 16.7963 32.5827 16.2473C32.0335 15.6982 31.143 15.6982 30.594 16.2473L24.1491 22.6919C23.5294 23.3118 23.1882 24.1357 23.1882 25.012V30.8225C23.1882 30.9458 23.1381 31.0666 23.0509 31.154L14.5039 39.701C13.8842 40.3207 13.543 41.1447 13.543 42.0211V47.8822C13.543 48.659 14.1724 49.2886 14.9492 49.2886Z" fill="black"/>
<path d="M107.039 39.7009L96.0448 28.7067C95.9563 28.618 95.9075 28.5004 95.9075 28.3752V25.5467C95.9075 24.6702 95.5663 23.8463 94.9466 23.2264L88.3267 16.6067C87.7775 16.0575 86.8871 16.0575 86.3381 16.6067C85.7889 17.1559 85.7889 18.0463 86.3381 18.5953L92.958 25.215C93.0465 25.3035 93.0952 25.4213 93.0952 25.5465V28.3752C93.0952 29.2515 93.4365 30.0756 94.0563 30.6955L105.051 41.6897C105.139 41.7782 105.188 41.896 105.188 42.0212V50.2819C105.188 51.0585 105.817 51.6882 106.594 51.6882C107.371 51.6882 108 51.0585 108 50.2819V42.0212C108 41.1447 107.659 40.3208 107.039 39.7009Z" fill="black"/>
<path d="M50.9486 93.7208H44.9368C44.8116 93.7208 44.694 93.672 44.6053 93.5835L40.1951 89.1733C39.5754 88.5537 38.7514 88.2124 37.8748 88.2124H27.909C27.1324 88.2124 26.5027 88.842 26.5027 89.6187C26.5027 90.3953 27.1324 91.0249 27.909 91.0249H37.875C38.0002 91.0249 38.118 91.0737 38.2065 91.1622L42.6167 95.5723C43.2364 96.1922 44.0604 96.5335 44.937 96.5335H50.9488C51.7254 96.5335 52.3551 95.9038 52.3551 95.1272C52.3551 94.3506 51.7252 93.7208 50.9486 93.7208Z" fill="black"/>
<path d="M66.6748 48.4639H57.75C56.4576 48.4639 55.4062 49.5152 55.4062 50.8076V62.5095C55.4062 63.8019 56.4576 64.8532 57.75 64.8532H66.6748C67.9672 64.8532 69.0186 63.8019 69.0186 62.5095V50.8076C69.0186 49.5152 67.9672 48.4639 66.6748 48.4639ZM66.2061 62.0407H58.2188V51.2764H66.2061V62.0407Z" fill="black"/>
</g>
<defs>
<linearGradient id="paint0_linear_295_6696" x1="-11.0001" y1="88" x2="106.5" y2="88" gradientUnits="userSpaceOnUse">
<stop stop-color="#EE7900"/>
<stop offset="1" stop-color="#EE7900" stop-opacity="0"/>
</linearGradient>
<clipPath id="clip0_295_6696">
<rect width="96" height="96" fill="white" transform="translate(11.9999 11.8872)"/>
</clipPath>
</defs>
</svg>
