<svg width="120" height="120" viewBox="0 0 120 120" fill="none" xmlns="http://www.w3.org/2000/svg">
<g clip-path="url(#clip0_295_6709)">
<rect x="19" y="48" width="23" height="40" fill="url(#paint0_linear_295_6709)"/>
<rect x="53" y="59" width="15" height="29" fill="url(#paint1_linear_295_6709)"/>
<rect x="43.1924" y="44" width="6" height="13" transform="rotate(45 43.1924 44)" fill="white"/>
<path d="M78 82L77.5 87L61 87.5L55.5 83V99H106.5V88.5L100 87.5V78L89.5 77.5L84.5 82H78Z" fill="url(#paint2_linear_295_6709)"/>
<path d="M104.719 86.5987H102.148V79.9567C102.148 78.1475 100.676 76.6754 98.867 76.6754H94.2189V72.2692C94.2189 72.1439 94.2676 72.0262 94.3559 71.9377L95.9767 70.3171C96.5964 69.6972 96.9376 68.8734 96.9376 67.997V62.2379C96.9376 62.1127 96.9864 61.9949 97.0749 61.9064L101.187 57.794C101.807 57.1741 102.148 56.3502 102.148 55.4738V48.7675H105.643C106.463 48.7675 107.211 48.3513 107.644 47.6542C108.077 46.957 108.117 46.1018 107.753 45.3665L100.606 30.9398C100.206 30.1317 99.3972 29.6298 98.4952 29.6298H91.7193L89.144 24.4312C88.7439 23.623 87.9352 23.1211 87.0333 23.1211H83.0617C82.2849 23.1211 81.6554 23.7507 81.6554 24.5273C81.6554 25.304 82.2849 25.9336 83.0617 25.9336H86.7494L89.3251 31.1326C89.7254 31.9403 90.5341 32.4421 91.4356 32.4421H98.2115L104.906 45.955H81.2705L63.3148 27.9993C62.4294 27.1139 61.2524 26.6262 60.0001 26.6262C58.7482 26.6262 57.5711 27.1137 56.6855 27.9991L38.7297 45.9548H15.0941L26.894 22.1367H69.1117L70.3437 24.6237C70.7441 25.4315 71.5527 25.9332 72.4542 25.9332H76.5009C77.2777 25.9332 77.9071 25.3036 77.9071 24.527C77.9071 23.7503 77.2777 23.1207 76.5009 23.1207H72.7379L71.5062 20.6343C71.1061 19.8262 70.2974 19.3242 69.3954 19.3242H26.6103C25.7086 19.3242 24.8999 19.8262 24.4998 20.6339L12.2471 45.3665C11.8827 46.1017 11.9236 46.9568 12.3564 47.6542C12.7889 48.3515 13.5371 48.7675 14.3577 48.7675H17.852V70.6874C17.852 71.464 18.4816 72.0937 19.2582 72.0937C20.0349 72.0937 20.6645 71.464 20.6645 70.6874V63.7379H24.3552L28.7313 68.114C29.174 68.5567 29.7626 68.8004 30.3886 68.8004H32.7927L35.0996 71.1072C35.3741 71.3817 35.7341 71.5192 36.0939 71.5192C36.4537 71.5192 36.8137 71.3819 37.0882 71.1072C37.6374 70.558 37.6374 69.6676 37.0882 69.1186L34.6439 66.6743C34.2012 66.2317 33.6127 65.9879 32.9866 65.9879H30.5825L26.2064 61.6118C25.7637 61.1692 25.1752 60.9254 24.5491 60.9254H20.6645V48.7675H35.9174L32.7974 51.8875C31.8836 52.8014 31.8836 54.2883 32.7974 55.2022L36.1119 58.5166C36.5546 58.9593 37.1431 59.203 37.7692 59.203C38.3952 59.203 38.9838 58.9593 39.4265 58.5166L40.7576 57.1855V76.4823H40.5297C39.6534 76.4823 38.8293 76.8235 38.2094 77.4434L35.0009 80.6519C34.9124 80.7404 34.7947 80.7892 34.6694 80.7892H28.8989C28.0224 80.7892 27.1983 81.1306 26.5788 81.7503L21.1762 87.1529H20.6645V77.2499C20.6645 76.4733 20.0349 75.8437 19.2582 75.8437C18.4816 75.8437 17.852 76.4733 17.852 77.2499V87.1527H15.2814C13.4722 87.1527 12.0001 88.6248 12.0001 90.434V97.3942C12.0001 99.2034 13.4722 100.675 15.2814 100.675H104.719C106.528 100.675 108 99.2034 108 97.3942V89.8799C108 88.0707 106.528 86.5987 104.719 86.5987ZM99.3357 48.7675V55.4738C99.3357 55.5991 99.287 55.7169 99.1985 55.8053L95.0861 59.9178C94.4664 60.5377 94.1251 61.3615 94.1251 62.2379V67.997C94.1251 68.1222 94.0764 68.24 93.9881 68.3285L92.3673 69.949C91.7476 70.5689 91.4064 71.3928 91.4064 72.2692V76.6754H88.6786C87.8021 76.6754 86.9782 77.0167 86.3585 77.6364L83.6289 80.3662C83.5402 80.4549 83.4224 80.5036 83.2972 80.5036H79.2429V57.1857L80.5737 58.5166C81.0164 58.9593 81.605 59.203 82.2311 59.203C82.8571 59.203 83.4459 58.9593 83.8882 58.5166L87.2032 55.202C88.1167 54.2881 88.1167 52.8014 87.2032 51.8875L84.0832 48.7675H99.3357ZM37.7692 56.1965L35.1176 53.5448L58.6741 29.9881C59.0283 29.6339 59.4993 29.4389 60.0001 29.4389C60.5009 29.4389 60.9719 29.6339 61.3257 29.9881L84.8827 53.5448L82.2309 56.1965L61.6574 35.6228C61.2149 35.1802 60.6262 34.9362 60.0001 34.9362C59.3741 34.9362 58.7855 35.18 58.3428 35.6227L37.7692 56.1965ZM66.5626 56.8004H53.4376C52.1452 56.8004 51.0939 57.8517 51.0939 59.1442V76.6563C50.7599 76.5438 50.4072 76.4821 50.0444 76.4821H43.5699V54.373L60.0001 37.943L76.4304 54.3732V86.5987H68.9064V59.1442C68.9064 57.8517 67.8551 56.8004 66.5626 56.8004ZM59.2032 78.3629C59.9799 78.3629 60.6095 77.7333 60.6095 76.9567V75.2422L63.4381 72.4135C63.881 71.9709 64.1251 71.3823 64.1251 70.7557V67.1328L66.0939 65.164V86.5987H61.7144C61.5892 86.5987 61.4714 86.5499 61.3829 86.4614L53.9064 78.985V59.6129H66.0939V61.1866L61.9996 65.2809C61.5567 65.7235 61.3126 66.3121 61.3126 66.9385V70.5614L58.4834 73.3906C58.0407 73.8333 57.797 74.4219 57.797 75.0477V76.9563C57.797 77.7333 58.4266 78.3629 59.2032 78.3629ZM105.188 97.3942C105.188 97.6525 104.977 97.8629 104.719 97.8629H15.2814C15.023 97.8629 14.8126 97.6525 14.8126 97.3942V90.434C14.8126 90.1756 15.023 89.9652 15.2814 89.9652H29.9802L32.7672 92.752C33.0311 93.0159 33.3886 93.164 33.7616 93.164H42.5626C43.3392 93.164 43.9689 92.5344 43.9689 91.7577C43.9689 90.9811 43.3392 90.3515 42.5626 90.3515H34.3439L31.5569 87.5647C31.2931 87.3009 30.9356 87.1527 30.5626 87.1527H25.1536L28.5676 83.7387C28.6548 83.6515 28.7756 83.6015 28.8989 83.6015H34.6694C35.5458 83.6015 36.3699 83.2602 36.9896 82.6405L40.1981 79.432C40.2867 79.3435 40.4043 79.2948 40.5296 79.2948H50.0444C50.1695 79.2948 50.2872 79.3435 50.3759 79.432L59.3939 88.45C60.0136 89.0699 60.8377 89.4112 61.7144 89.4112H86.0626C86.8394 89.4112 87.4689 88.7815 87.4689 88.0049C87.4689 87.2283 86.8394 86.5987 86.0626 86.5987H79.2429V83.3161H83.2972C84.1736 83.3161 84.9974 82.9749 85.6175 82.3552L88.3475 79.6252C88.4347 79.538 88.5552 79.4881 88.6788 79.4881H98.8672C99.1257 79.4881 99.3359 79.6985 99.3359 79.9569V86.5989H92.6251C91.8483 86.5989 91.2189 87.2285 91.2189 88.0051C91.2189 88.7817 91.8483 89.4114 92.6251 89.4114H104.719C104.977 89.4114 105.188 89.6217 105.188 89.8801V97.3942Z" fill="black"/>
</g>
<defs>
<linearGradient id="paint0_linear_295_6709" x1="30" y1="48.5" x2="30" y2="76.5" gradientUnits="userSpaceOnUse">
<stop stop-color="#EE7900"/>
<stop offset="1" stop-color="#EE7900" stop-opacity="0"/>
</linearGradient>
<linearGradient id="paint1_linear_295_6709" x1="59.9999" y1="59" x2="59.9999" y2="83" gradientUnits="userSpaceOnUse">
<stop stop-color="#EE7900"/>
<stop offset="1" stop-color="#EE7900" stop-opacity="0"/>
</linearGradient>
<linearGradient id="paint2_linear_295_6709" x1="112" y1="88.6207" x2="55" y2="88.6207" gradientUnits="userSpaceOnUse">
<stop stop-color="#EE7900"/>
<stop offset="1" stop-color="#EE7900" stop-opacity="0"/>
</linearGradient>
<clipPath id="clip0_295_6709">
<rect width="96" height="96" fill="white" transform="translate(12 12)"/>
</clipPath>
</defs>
</svg>
