<svg width="120" height="120" viewBox="0 0 120 120" fill="none" xmlns="http://www.w3.org/2000/svg">
<g clip-path="url(#clip0_295_6678)">
<rect x="36.9999" y="35" width="15" height="25" fill="url(#paint0_linear_295_6678)"/>
<path d="M51.9155 33.6875H37.6897C36.3969 33.6875 35.3459 34.7385 35.3459 36.0312V59.2688C35.3459 60.5608 36.3969 61.6125 37.6897 61.6125H51.9155C53.2082 61.6125 54.2592 60.5608 54.2592 59.2688V36.0312C54.2592 34.7385 53.2082 33.6875 51.9155 33.6875ZM43.396 58.8H38.1584V53.0491H43.396V58.8ZM43.396 50.2366H38.1584V45.0627H43.396V50.2366ZM43.396 42.2502H38.1584V36.5H43.396V42.2502ZM51.4467 58.8H46.2085V53.0491H51.4467V58.8ZM51.4467 50.2366H46.2085V45.0627H51.4467V50.2366ZM51.4467 42.2502H46.2085V36.5H51.4467V42.2502Z" fill="black"/>
<rect x="67.9999" y="82" width="15" height="23" fill="url(#paint1_linear_295_6678)"/>
<rect x="13.9999" y="100" width="39" height="5" fill="url(#paint2_linear_295_6678)"/>
<path d="M70.7761 89.8306C69.999 89.8306 69.3698 90.4604 69.3698 91.2368V94.6133C69.3698 95.3896 69.999 96.0195 70.7761 96.0195C71.5532 96.0195 72.1823 95.3896 72.1823 94.6133V91.2368C72.1823 90.4604 71.5532 89.8306 70.7761 89.8306Z" fill="black"/>
<path d="M107.987 75.6289C107.922 75.1353 107.669 74.6951 107.276 74.3904L77.4829 51.3389C76.8222 50.8284 76.0327 50.5581 75.1992 50.5581C74.365 50.5581 73.5754 50.8284 72.914 51.3396L68.4082 54.8259V50.7874C68.4082 50.0103 67.779 49.3811 67.0019 49.3811C66.2248 49.3811 65.5957 50.0103 65.5957 50.7874V57.002L43.1235 74.3897C42.7324 74.6914 42.4724 75.1462 42.4109 75.6348C42.3472 76.1292 42.4797 76.6199 42.7837 77.0161L45.0637 79.9817C45.4219 80.4453 45.9624 80.7112 46.5476 80.7112C46.9592 80.7112 47.3657 80.5728 47.6924 80.3201L75.1992 59.0374L95.9905 75.1243V104.424H84.6643V101.787C84.6643 101.01 84.0351 100.381 83.258 100.381C82.4809 100.381 81.8518 101.01 81.8518 101.787V104.424H68.5444V82.8806H81.8518V95.178C81.8518 95.9551 82.4809 96.5842 83.258 96.5842C84.0351 96.5842 84.6643 95.9551 84.6643 95.178V82.4119C84.6643 81.1199 83.6125 80.0681 82.3205 80.0681H68.0764C66.7837 80.0681 65.7319 81.1199 65.7319 82.4119V104.424H55.0459V100.588C55.0459 99.2957 53.9949 98.2446 52.7021 98.2446H51.3559C51.468 97.6851 51.5288 97.1072 51.5288 96.5154C51.5288 91.6484 47.5686 87.689 42.7016 87.689C40.0598 87.689 37.5879 88.9011 35.9348 90.867C35.3093 90.6692 34.6443 90.5615 33.9543 90.5615C33.4475 90.5615 32.9494 90.6179 32.4653 90.7307C30.9338 88.1072 28.0759 86.4197 24.9866 86.4197C24.6577 86.4197 24.3325 86.4402 24.0117 86.4775V39.4048L44.8037 23.3164L65.5964 39.4048V44.2241C65.5964 45.0012 66.2256 45.6304 67.0027 45.6304C67.779 45.6304 68.4089 45.0012 68.4089 44.2241V41.5808L72.3113 44.5999C72.6372 44.8525 73.0437 44.991 73.4553 44.991C74.042 44.991 74.5832 44.7244 74.9399 44.26C74.945 44.2534 74.9502 44.2461 74.9553 44.2395L77.1394 41.2893L77.1533 41.2717C77.2976 41.0908 77.6806 40.6111 77.5913 39.9087C77.5261 39.4128 77.2727 38.9727 76.8801 38.6702L47.0881 15.6187C46.4275 15.1082 45.6379 14.8379 44.8037 14.8379C43.9695 14.8379 43.1799 15.1082 42.5185 15.6194L34.3389 21.9482V20.1758C35.4448 19.9883 36.29 19.0259 36.29 17.8679V15.0562C36.29 13.7634 35.2383 12.7124 33.9463 12.7124H22.5505C21.2585 12.7124 20.2068 13.7634 20.2068 15.0562V17.8672C20.2068 19.0259 21.052 19.9875 22.1579 20.1758V31.373L12.7302 38.668C12.3376 38.9697 12.0776 39.4253 12.0161 39.9124C11.9516 40.4075 12.0835 40.8982 12.3882 41.2952L14.6682 44.2607C15.0256 44.7251 15.5661 44.991 16.1521 44.991C16.5637 44.991 16.9695 44.8525 17.2976 44.5999L21.1992 41.5808V87.3045C18.9668 88.4031 17.2478 90.4392 16.6091 92.9229C14.4888 93.7402 13.032 95.7998 13.032 98.1377C13.032 98.3955 13.0503 98.6489 13.084 98.898C12.6379 99.325 12.3596 99.9241 12.3596 100.588V104.894C12.3596 106.186 13.4106 107.237 14.7034 107.237H102.879C103.656 107.237 104.285 106.607 104.285 105.831C104.285 105.054 103.656 104.425 102.879 104.425H98.803V77.3003L102.706 80.3201C103.032 80.572 103.438 80.7112 103.85 80.7112C104.437 80.7112 104.978 80.4446 105.335 79.9795C105.34 79.9729 105.345 79.9663 105.35 79.9597L107.535 77.0088L107.55 76.9905C107.693 76.8103 108.075 76.3306 107.987 75.6289ZM42.7016 90.5015C46.0181 90.5015 48.7163 93.1997 48.7163 96.5154C48.7163 97.1167 48.6255 97.6968 48.4607 98.2446H40.4392C40.5 97.8872 40.5337 97.5195 40.5337 97.1445C40.5337 95.2366 39.717 93.5169 38.417 92.3128C39.5288 91.1841 41.0669 90.5015 42.7016 90.5015ZM23.0193 15.5249H33.4775V17.3984H23.0193V15.5249ZM31.5264 20.2109V24.1243L24.9704 29.197V20.2109H31.5264ZM16.3227 41.7983L15.1882 40.3225L44.239 17.8438C44.4053 17.7156 44.595 17.6504 44.8037 17.6504C45.0124 17.6504 45.2021 17.7156 45.3677 17.843L74.3789 40.291L73.2715 41.7874L45.6643 20.4263C45.1575 20.0344 44.4499 20.0344 43.9431 20.4263L16.3227 41.7983ZM52.2334 104.425H15.1721V101.057H28.1257C28.9021 101.057 29.532 100.428 29.532 99.6509C29.532 98.8738 28.9021 98.2446 28.1257 98.2446H15.8481C15.8467 98.2087 15.8445 98.1736 15.8445 98.1377C15.8445 96.8113 16.7871 95.665 18.0871 95.4131C18.6753 95.2988 19.1265 94.825 19.2114 94.2324C19.6216 91.3826 22.1045 89.2329 24.9866 89.2329C27.3801 89.2329 29.5686 90.7351 30.4321 92.9705C30.5727 93.3352 30.8584 93.6245 31.2217 93.7703C31.5849 93.9153 31.9914 93.9021 32.3452 93.7351C32.8506 93.4963 33.3926 93.3748 33.9543 93.3748C36.0315 93.3748 37.7212 95.0659 37.7212 97.1453C37.7212 97.5283 37.6611 97.8967 37.5542 98.2446H34.8757C34.0986 98.2446 33.4695 98.8745 33.4695 99.6509C33.4695 100.428 34.0986 101.057 34.8757 101.057H52.2334V104.425ZM103.667 77.5076L76.0598 56.1472C75.553 55.7546 74.8454 55.7546 74.3386 56.1472L46.7175 77.5186L45.583 76.0427L74.6345 53.5647C74.8008 53.4358 74.9905 53.3706 75.1992 53.3706C75.4072 53.3706 75.5976 53.4358 75.7632 53.564L104.774 76.0112L103.667 77.5076Z" fill="black"/>
</g>
<defs>
<linearGradient id="paint0_linear_295_6678" x1="40.9999" y1="35" x2="53.6122" y2="60.8436" gradientUnits="userSpaceOnUse">
<stop stop-color="#EE7900"/>
<stop offset="1" stop-color="#EE7900" stop-opacity="0"/>
</linearGradient>
<linearGradient id="paint1_linear_295_6678" x1="71.9999" y1="82" x2="82.9999" y2="106.5" gradientUnits="userSpaceOnUse">
<stop stop-color="#EE7900"/>
<stop offset="1" stop-color="#EE7900" stop-opacity="0"/>
</linearGradient>
<linearGradient id="paint2_linear_295_6678" x1="13.9999" y1="102.5" x2="25.2751" y2="117.536" gradientUnits="userSpaceOnUse">
<stop stop-color="#EE7900"/>
<stop offset="1" stop-color="#EE7900" stop-opacity="0"/>
</linearGradient>
<clipPath id="clip0_295_6678">
<rect width="96.0001" height="96" fill="white" transform="translate(11.9999 11.9624)"/>
</clipPath>
</defs>
</svg>
