<svg width="120" height="120" viewBox="0 0 120 120" fill="none" xmlns="http://www.w3.org/2000/svg">
<path d="M33 45.5L39.5 22.5H81L86.5 45.5H33Z" fill="url(#paint0_linear_524_3140)"/>
<path d="M18.9999 94.5C16.1999 92.1 20.4999 88.1667 22.9999 86.5L26.5 86L30 88.5L33.5 89.5C33.8333 89.5 34.9 90 36.5 92C38.1 94 36.1667 96.5 35 97.5L30.5 98C27.8333 97.8333 21.7999 96.9 18.9999 94.5Z" fill="url(#paint1_linear_524_3140)"/>
<path d="M102.086 94.5C104.886 92.1 100.586 88.1667 98.0865 86.5L94.5864 86L91.0864 88.5L87.5864 89.5C87.2531 89.5 86.1864 90 84.5864 92C82.9864 94 84.9198 96.5 86.0864 97.5L90.5864 98C93.2531 97.8333 99.2865 96.9 102.086 94.5Z" fill="url(#paint2_linear_524_3140)"/>
<path d="M21 54.5H27V83H30V54.5H90V83H93V54.5H99C99.2347 54.5 99.4662 54.4449 99.6757 54.3391C99.8853 54.2334 100.067 54.0799 100.207 53.8911C100.346 53.7023 100.439 53.4834 100.479 53.252C100.518 53.0206 100.503 52.7832 100.434 52.5588L94.4336 33.0588C94.3393 32.7522 94.1491 32.484 93.8911 32.2934C93.6331 32.1028 93.3207 32 93 32H88.5V35H91.8922L96.969 51.5H23.031L28.1077 35H31.5V32H27C26.6792 32 26.3669 32.1028 26.1089 32.2934C25.8508 32.484 25.6607 32.7522 25.5663 33.0588L19.5663 52.5588C19.4973 52.7832 19.4819 53.0206 19.5213 53.252C19.5607 53.4834 19.6539 53.7023 19.7934 53.8911C19.9328 54.0799 20.1147 54.2334 20.3242 54.3391C20.5338 54.4449 20.7652 54.5 21 54.5Z" fill="black"/>
<path d="M60 75.5H57V78.5H60V75.5Z" fill="black"/>
<path d="M34.5 65V80C34.5 80.3978 34.658 80.7794 34.9393 81.0607C35.2206 81.342 35.6022 81.5 36 81.5H45C45.3978 81.5 45.7794 81.342 46.0607 81.0607C46.342 80.7794 46.5 80.3978 46.5 80V65C46.5 64.6022 46.342 64.2206 46.0607 63.9393C45.7794 63.658 45.3978 63.5 45 63.5H36C35.6022 63.5 35.2206 63.658 34.9393 63.9393C34.658 64.2206 34.5 64.6022 34.5 65ZM37.5 78.5V75.5H43.5V78.5H37.5ZM43.5 66.5V72.5H37.5V66.5H43.5Z" fill="black"/>
<path d="M73.5 65V80C73.5 80.3978 73.658 80.7794 73.9393 81.0607C74.2206 81.342 74.6022 81.5 75 81.5H84C84.3978 81.5 84.7794 81.342 85.0607 81.0607C85.342 80.7794 85.5 80.3978 85.5 80V65C85.5 64.6022 85.342 64.2206 85.0607 63.9393C84.7794 63.658 84.3978 63.5 84 63.5H75C74.6022 63.5 74.2206 63.658 73.9393 63.9393C73.658 64.2206 73.5 64.6022 73.5 65ZM76.5 78.5V75.5H82.5V78.5H76.5ZM82.5 66.5V72.5H76.5V66.5H82.5Z" fill="black"/>
<path d="M42 57.5H39V60.5H42V57.5Z" fill="black"/>
<path d="M81 57.5H78V60.5H81V57.5Z" fill="black"/>
<path d="M33 47H87C87.2279 47 87.4528 46.948 87.6577 46.8481C87.8626 46.7481 88.0419 46.6028 88.1822 46.4231C88.3225 46.2435 88.42 46.0342 88.4673 45.8112C88.5146 45.5882 88.5104 45.3574 88.4551 45.1362L82.4551 21.1362C82.374 20.8117 82.1867 20.5236 81.9231 20.3177C81.6594 20.1118 81.3345 20 81 20H39C38.6654 20 38.3405 20.1118 38.0768 20.3177C37.8132 20.5236 37.6259 20.8117 37.5448 21.1362L31.5448 45.1362C31.4895 45.3574 31.4853 45.5882 31.5326 45.8112C31.5799 46.0342 31.6774 46.2435 31.8177 46.4231C31.958 46.6028 32.1374 46.7481 32.3422 46.8481C32.5471 46.948 32.772 47 33 47ZM66.8467 35H73.6757L74.8007 44H67.4092L66.8467 35ZM64.4032 44H55.5967L56.1592 35H63.8407L64.4032 44ZM66.6592 32L66.0967 23H72.1757L73.3007 32H66.6592ZM63.6532 32H56.3467L56.9092 23H63.0907L63.6532 32ZM53.3407 32H46.6991L47.8241 23H53.9032L53.3407 32ZM53.1532 35L52.5907 44H45.1991L46.3241 35H53.1532ZM77.8241 44L76.6991 35H82.8288L85.0788 44H77.8241ZM82.0788 32H76.3241L75.1991 23H79.8288L82.0788 32ZM40.1711 23H44.8006L43.6756 32H37.9211L40.1711 23ZM37.1711 35H43.3006L42.1756 44H34.9211L37.1711 35Z" fill="black"/>
<path d="M95.9999 84.5C94.8023 84.5025 93.6226 84.7907 92.5587 85.3407C91.4949 85.8908 90.5777 86.6867 89.8832 87.6624C88.743 87.3911 87.5482 87.46 86.4466 87.8605C85.3451 88.261 84.3851 88.9756 83.6854 89.916C82.9857 90.8563 82.5769 91.9811 82.5097 93.1513C82.4424 94.3215 82.7197 95.4857 83.3071 96.5H75.9269L73.3414 91.3291C73.2169 91.08 73.0254 90.8705 72.7884 90.724C72.5515 90.5776 72.2784 90.5 71.9999 90.5H68.9999V71C68.9999 68.6131 68.0517 66.3239 66.3638 64.636C64.676 62.9482 62.3868 62 59.9999 62C57.6129 62 55.3237 62.9482 53.6359 64.636C51.9481 66.3239 50.9999 68.6131 50.9999 71V90.5H47.9999C47.7213 90.5 47.4483 90.5776 47.2113 90.724C46.9744 90.8705 46.7829 91.08 46.6583 91.3291L44.0729 96.5H36.6936C37.2806 95.4857 37.5574 94.3216 37.49 93.1516C37.4226 91.9816 37.0138 90.857 36.3142 89.9168C35.6146 88.9767 34.6548 88.2621 33.5535 87.8614C32.4522 87.4607 31.2576 87.3915 30.1174 87.6624C29.3731 86.6125 28.3712 85.7718 27.2079 85.2211C26.0447 84.6705 24.7593 84.4285 23.4755 84.5183C22.1917 84.6081 20.9526 85.0268 19.8774 85.7341C18.8021 86.4413 17.927 87.4134 17.3362 88.5567C16.7453 89.7 16.4586 90.9762 16.5036 92.2623C16.5486 93.5485 16.9239 94.8015 17.5932 95.9007C18.2626 96.9999 19.2035 97.9084 20.3255 98.5388C21.4475 99.1691 22.7129 99.5001 23.9999 99.5H95.9999C97.989 99.5 99.8967 98.7098 101.303 97.3033C102.71 95.8968 103.5 93.9891 103.5 92C103.5 90.0109 102.71 88.1032 101.303 86.6967C99.8967 85.2902 97.989 84.5 95.9999 84.5ZM53.9999 71C53.9999 69.4087 54.632 67.8826 55.7572 66.7574C56.8825 65.6321 58.4086 65 59.9999 65C61.5912 65 63.1173 65.6321 64.2425 66.7574C65.3677 67.8826 65.9999 69.4087 65.9999 71V90.5H53.9999V71ZM48.9269 93.5H71.0729L72.5729 96.5H47.4269L48.9269 93.5ZM31.4999 96.5H23.9999C23.1922 96.5 22.3995 96.2827 21.7048 95.8707C21.0101 95.4588 20.439 94.8675 20.0515 94.1589C19.6641 93.4503 19.4744 92.6504 19.5026 91.8433C19.5307 91.0361 19.7755 90.2514 20.2114 89.5715C20.6473 88.8915 21.2581 88.3414 21.9798 87.9789C22.7015 87.6163 23.5074 87.4547 24.3131 87.5109C25.1188 87.5671 25.8945 87.8392 26.5589 88.2985C27.2232 88.7577 27.7517 89.3874 28.0889 90.1213C28.1735 90.305 28.2944 90.4697 28.4443 90.6055C28.5942 90.7413 28.7701 90.8454 28.9613 90.9115C29.1525 90.9776 29.355 91.0043 29.5568 90.9901C29.7586 90.9758 29.9554 90.9209 30.1354 90.8287C30.5574 90.6115 31.0253 90.4988 31.4999 90.5C32.2955 90.5 33.0586 90.8161 33.6212 91.3787C34.1838 91.9413 34.4999 92.7044 34.4999 93.5C34.4999 94.2957 34.1838 95.0587 33.6212 95.6213C33.0586 96.1839 32.2955 96.5 31.4999 96.5ZM95.9999 96.5H88.4999C87.7042 96.5 86.9412 96.1839 86.3786 95.6213C85.8159 95.0587 85.4999 94.2957 85.4999 93.5C85.4999 92.7044 85.8159 91.9413 86.3786 91.3787C86.9412 90.8161 87.7042 90.5 88.4999 90.5C88.9744 90.4988 89.4424 90.6115 89.8643 90.8287C90.0443 90.9209 90.2412 90.9758 90.4429 90.9901C90.6447 91.0043 90.8473 90.9776 91.0385 90.9115C91.2297 90.8454 91.4055 90.7413 91.5554 90.6055C91.7053 90.4697 91.8263 90.305 91.9109 90.1213C92.2481 89.3874 92.7766 88.7577 93.4409 88.2985C94.1052 87.8392 94.8809 87.5671 95.6866 87.5109C96.4923 87.4547 97.2983 87.6163 98.02 87.9789C98.7417 88.3414 99.3525 88.8915 99.7884 89.5715C100.224 90.2514 100.469 91.0361 100.497 91.8433C100.525 92.6504 100.336 93.4503 99.9482 94.1589C99.5608 94.8675 98.9897 95.4588 98.295 95.8707C97.6003 96.2827 96.8075 96.5 95.9999 96.5Z" fill="black"/>
<defs>
<linearGradient id="paint0_linear_524_3140" x1="33" y1="32.8265" x2="86.4877" y2="31.5901" gradientUnits="userSpaceOnUse">
<stop stop-color="#EE7900"/>
<stop offset="1" stop-color="#EE7900" stop-opacity="0"/>
</linearGradient>
<linearGradient id="paint1_linear_524_3140" x1="18.0864" y1="91.3878" x2="37.109" y2="91.0881" gradientUnits="userSpaceOnUse">
<stop stop-color="#EE7900"/>
<stop offset="1" stop-color="#EE7900" stop-opacity="0"/>
</linearGradient>
<linearGradient id="paint2_linear_524_3140" x1="103" y1="91.3878" x2="83.9775" y2="91.0881" gradientUnits="userSpaceOnUse">
<stop stop-color="#EE7900" stop-opacity="0"/>
<stop offset="1" stop-color="#EE7900"/>
</linearGradient>
</defs>
</svg>
