<svg width="120" height="120" viewBox="0 0 120 120" fill="none" xmlns="http://www.w3.org/2000/svg">
<path d="M65 29H55V61.7546C53.1711 63.2208 52 65.4736 52 68C52 72.4183 55.5817 76 60 76C64.4183 76 68 72.4183 68 68C68 65.4736 66.8289 63.2208 65 61.7546V29Z" fill="url(#paint0_linear_295_6353)"/>
<circle cx="60" cy="68" r="3" fill="white"/>
<path d="M70.7434 75.7892C72.0958 75.5877 72.8739 74.7378 74.0314 73.3671C77.3941 68.6578 83.1193 68.6638 86.4714 73.3688C88.7939 76.6603 91.9856 76.6475 94.3061 73.364C95.6366 71.7905 97.2908 69.8315 100.523 69.8315C100.916 69.8393 101.29 70.0008 101.565 70.2813C101.84 70.5619 101.994 70.9391 101.994 71.3319C101.994 71.7248 101.84 72.102 101.565 72.3826C101.29 72.6631 100.916 72.8246 100.523 72.8323C98.7692 72.8323 97.9296 73.7247 96.5977 75.3013C95.2672 76.875 93.613 78.834 90.3807 78.834C87.1572 78.834 85.5058 76.8765 84.1783 75.3035C82.8464 73.7254 82.0082 72.8324 80.2529 72.8324C76.364 72.9193 75.6954 78.3304 71.1858 78.7576C70.9908 78.7868 70.7919 78.7774 70.6006 78.7298C70.4092 78.6822 70.2291 78.5973 70.0706 78.48C69.9121 78.3627 69.7782 78.2154 69.6767 78.0463C69.5751 77.8773 69.5079 77.6899 69.4788 77.4949C69.4497 77.2998 69.4594 77.101 69.5072 76.9096C69.5551 76.7183 69.6401 76.5383 69.7576 76.3799C69.875 76.2215 70.0226 76.0878 70.1917 75.9865C70.3609 75.8851 70.5483 75.818 70.7434 75.7892ZM19.5008 72.8323C21.2444 72.8323 22.0811 73.7232 23.41 75.2968C24.739 76.8727 26.3933 78.8339 29.6285 78.8339C32.855 78.8339 34.5064 76.8741 35.8324 75.2997C37.1599 73.7238 37.9966 72.8322 39.7418 72.832C43.6527 72.9286 44.259 78.3183 48.8453 78.7738C49.2378 78.8278 49.6358 78.7243 49.9523 78.4859C50.2689 78.2475 50.4782 77.8936 50.5347 77.5014C50.5912 77.1092 50.4903 76.7105 50.2539 76.3925C50.0176 76.0745 49.665 75.8628 49.2731 75.8038C47.9075 75.6068 47.1265 74.7518 45.9646 73.3732C42.6208 68.6717 36.8863 68.6521 33.5378 73.3655C31.2169 76.6614 28.0239 76.6486 25.7031 73.362C24.3756 71.789 22.7243 69.8315 19.5008 69.8315C19.108 69.8392 18.7339 70.0007 18.4589 70.2812C18.1838 70.5617 18.0297 70.939 18.0297 71.3318C18.0297 71.7247 18.1838 72.1019 18.4588 72.3825C18.7339 72.663 19.108 72.8245 19.5008 72.8323ZM100.523 84.843C97.2923 84.843 95.638 86.802 94.309 88.3765C92.9771 89.9531 92.139 90.8447 90.3865 90.8447C88.634 90.8447 87.796 89.9531 86.464 88.3765C85.135 86.802 83.4808 84.843 80.2499 84.843C77.0205 84.843 75.3662 86.802 74.0372 88.3765C72.7067 89.9531 71.8701 90.8447 70.1192 90.8447C68.3727 90.8447 67.536 89.9531 66.207 88.3772C64.8795 86.8027 63.2267 84.843 59.9988 84.843C56.7694 84.843 55.1166 86.8027 53.7876 88.3772C52.4586 89.953 51.6205 90.8447 49.8724 90.8447C48.1244 90.8447 47.2863 89.9531 45.9573 88.3774C42.6007 83.6834 36.9156 83.6583 33.5393 88.3763C31.217 91.6656 28.0357 91.6671 25.7105 88.3772C24.383 86.8028 22.7302 84.843 19.5008 84.843C19.3033 84.8424 19.1077 84.8807 18.9251 84.9559C18.7425 85.031 18.5766 85.1414 18.4367 85.2808C18.2969 85.4202 18.186 85.5858 18.1103 85.7681C18.0346 85.9505 17.9956 86.146 17.9956 86.3434C17.9956 86.5409 18.0346 86.7364 18.1103 86.9187C18.186 87.1011 18.2969 87.2667 18.4367 87.4061C18.5766 87.5455 18.7425 87.6559 18.9251 87.731C19.1077 87.8061 19.3033 87.8445 19.5008 87.8438C21.2503 87.8438 22.0869 88.7354 23.4159 90.3118C24.0577 91.3859 24.9672 92.2752 26.0555 92.8926C27.1438 93.5101 28.3737 93.8347 29.625 93.8347C30.8762 93.8346 32.1061 93.51 33.1944 92.8925C34.2827 92.2749 35.1921 91.3857 35.8339 90.3115C38.15 87.0223 41.3472 87.0231 43.6627 90.3113C44.9917 91.8857 46.6445 93.8455 49.8724 93.8455C53.1004 93.8455 54.7532 91.8865 56.0822 90.3121C57.4112 88.7354 58.2493 87.8438 59.9988 87.8438C61.7468 87.8438 62.5835 88.7354 63.9124 90.3121C65.2399 91.8865 66.8928 93.8455 70.1192 93.8455C73.3487 93.8455 75.0029 91.8865 76.3319 90.3121C77.6624 88.7354 78.499 87.8438 80.2499 87.8438C82.0023 87.8438 82.8404 88.7354 84.1724 90.3121C85.5014 91.8865 87.1556 93.8455 90.3865 93.8455C93.6174 93.8455 95.2716 91.8865 96.6006 90.3121C97.9325 88.7354 98.7707 87.8438 100.523 87.8438C100.917 87.8376 101.292 87.6768 101.569 87.3961C101.845 87.1154 102 86.7374 102 86.3435C102 85.9496 101.845 85.5715 101.569 85.2908C101.293 85.0101 100.917 84.8493 100.523 84.843ZM55.5107 68.1662C55.5136 67.2384 55.8035 66.3342 56.3408 65.5777C56.8781 64.8213 57.6364 64.2497 58.5115 63.9414V33.6567C58.5109 33.4592 58.5492 33.2636 58.6244 33.081C58.6995 32.8985 58.8099 32.7325 58.9493 32.5927C59.0887 32.4528 59.2543 32.3419 59.4367 32.2662C59.619 32.1905 59.8145 32.1515 60.0119 32.1515C60.2094 32.1515 60.4049 32.1905 60.5872 32.2662C60.7696 32.3419 60.9352 32.4528 61.0746 32.5927C61.214 32.7325 61.3244 32.8985 61.3995 33.081C61.4746 33.2636 61.513 33.4592 61.5124 33.6567V63.9414C62.2882 64.2179 62.9731 64.7023 63.4923 65.3417C64.0115 65.9811 64.345 66.7509 64.4562 67.567C64.5675 68.3831 64.4523 69.2141 64.1233 69.9691C63.7943 70.7242 63.264 71.3743 62.5905 71.8484C61.917 72.3225 61.1262 72.6024 60.3044 72.6574C59.4826 72.7125 58.6614 72.5406 57.9307 72.1605C57.2 71.7805 56.5878 71.2069 56.161 70.5025C55.7342 69.798 55.5093 68.9898 55.5107 68.1662ZM58.5115 68.1662C58.5115 68.463 58.5995 68.7531 58.7644 68.9998C58.9293 69.2465 59.1636 69.4389 59.4378 69.5524C59.7119 69.666 60.0136 69.6957 60.3047 69.6378C60.5957 69.5799 60.8631 69.437 61.0729 69.2272C61.2827 69.0173 61.4256 68.75 61.4835 68.4589C61.5414 68.1679 61.5117 67.8662 61.3982 67.592C61.2846 67.3179 61.0923 67.0835 60.8455 66.9187C60.5988 66.7538 60.3087 66.6658 60.0119 66.6658C59.6141 66.6662 59.2327 66.8244 58.9514 67.1057C58.6701 67.387 58.5119 67.7684 58.5115 68.1662ZM50.2592 68.1662C50.2558 66.851 50.5201 65.5489 51.036 64.3392C51.5519 63.1294 52.3086 62.0373 53.2601 61.1294V32.9065C53.2587 32.019 53.4324 31.1399 53.7711 30.3196C54.1099 29.4992 54.607 28.7537 55.2341 28.1257C55.8612 27.4976 56.606 26.9994 57.4258 26.6595C58.2456 26.3195 59.1244 26.1445 60.0119 26.1445C60.8995 26.1445 61.7783 26.3195 62.5981 26.6595C63.4179 26.9994 64.1627 27.4976 64.7898 28.1257C65.4169 28.7537 65.914 29.4992 66.2527 30.3196C66.5915 31.1399 66.7651 32.019 66.7638 32.9065V61.1294C67.9272 62.2456 68.7957 63.633 69.2916 65.1672C69.7875 66.7014 69.8952 68.3346 69.6052 69.9206C69.3152 71.5067 68.6365 72.9961 67.6298 74.2556C66.6231 75.515 65.3199 76.5053 63.8367 77.1376C62.3536 77.77 60.7367 78.0248 59.131 77.8791C57.5252 77.7335 55.9806 77.192 54.6354 76.3032C53.2902 75.4143 52.1864 74.2058 51.4227 72.7858C50.659 71.3658 50.2592 69.7786 50.2592 68.1662ZM53.2601 68.1662C53.2595 69.3038 53.5463 70.4231 54.094 71.4202C54.6417 72.4173 55.4324 73.2599 56.3928 73.8697C57.3532 74.4795 58.452 74.8367 59.5874 74.9082C60.7228 74.9798 61.8578 74.7633 62.8871 74.2788C63.9164 73.7944 64.8066 73.0578 65.4751 72.1373C66.1436 71.2168 66.5687 70.1423 66.7109 69.0136C66.8531 67.885 66.7078 66.7386 66.2885 65.6811C65.8692 64.6236 65.1894 63.6892 64.3124 62.9646C64.1408 62.8238 64.0024 62.6467 63.9074 62.446C63.8124 62.2454 63.7631 62.0261 63.763 61.8041V32.9065C63.763 31.9116 63.3678 30.9575 62.6643 30.2541C61.9609 29.5506 61.0068 29.1554 60.0119 29.1554C59.0171 29.1554 58.063 29.5506 57.3596 30.2541C56.6561 30.9575 56.2609 31.9116 56.2609 32.9065V61.8041C56.2608 62.0261 56.2115 62.2454 56.1165 62.446C56.0214 62.6467 55.8831 62.8238 55.7114 62.9646C54.9422 63.5952 54.3231 64.3892 53.8991 65.2889C53.4751 66.1887 53.2568 67.1716 53.2601 68.1662Z" fill="black"/>
<defs>
<linearGradient id="paint0_linear_295_6353" x1="60" y1="74.5" x2="60" y2="29" gradientUnits="userSpaceOnUse">
<stop offset="0.281365" stop-color="#EE7900"/>
<stop offset="1" stop-color="white" stop-opacity="0"/>
<stop offset="1.0001" stop-color="#EE7900" stop-opacity="0"/>
</linearGradient>
</defs>
</svg>
