<svg width="120" height="120" viewBox="0 0 120 120" fill="none" xmlns="http://www.w3.org/2000/svg">
<path d="M59.1871 63.9834C57.9035 66.7329 58.3551 69.2042 54.9248 72.6184C52.2546 75.2756 49.1249 75.0334 47.5658 75.0334C47.4209 73.7029 46.2912 72.6636 44.9228 72.6636H40.9754C40.619 71.2868 39.3696 70.2652 37.883 70.2652H28.1187C26.3555 70.2652 24.9209 71.6998 24.9209 73.4631V100.744C24.9209 102.507 26.3553 103.942 28.1187 103.942H29.7196C30.4964 103.942 31.1258 103.312 31.1258 102.535C31.1258 101.759 30.4964 101.129 29.7196 101.129H28.1187C27.9063 101.129 27.7334 100.956 27.7334 100.744V73.4632C27.7334 73.2508 27.9063 73.0779 28.1187 73.0779H37.8828C38.0952 73.0779 38.2681 73.2508 38.2681 73.4632V100.744C38.2681 100.956 38.0952 101.129 37.8828 101.129H36.2821C35.5053 101.129 34.8758 101.759 34.8758 102.535C34.8758 103.312 35.5053 103.942 36.2821 103.942H37.8828C39.3695 103.942 40.6188 102.92 40.9752 101.543H44.9226C46.0625 101.543 47.0343 100.821 47.4119 99.8117C52.4946 99.8117 52.8927 102.455 58.2629 102.455H64.1881V103.002C64.1881 105.758 66.43 108 69.1859 108C71.9418 108 74.1837 105.758 74.1837 103.002V102.455H74.4286C76.9463 102.455 78.9946 100.407 78.9946 97.8889C78.9946 96.9898 78.7332 96.1504 78.2826 95.4429C79.5732 94.6352 80.4333 93.201 80.4333 91.5696C80.4333 90.6705 80.1719 89.8312 79.7215 89.1236C81.0121 88.3161 81.8721 86.8817 81.8721 85.2503C81.8721 84.3512 81.6108 83.5119 81.1604 82.8043C82.451 81.9967 83.311 80.5622 83.311 78.9307C83.311 76.413 81.2628 74.3647 78.745 74.3647H74.1839V63.2994C86.0776 60.9639 95.0787 50.4604 95.0787 37.8926C95.0787 23.6154 83.4633 12 69.1861 12C54.9089 12 43.2933 23.6154 43.2933 37.8928C43.2933 49.1393 50.5013 58.7323 60.5397 62.2991C59.971 62.7388 59.5013 63.3105 59.1871 63.9834ZM44.7698 98.7309H41.0806V75.4762H44.7698V98.7309ZM71.3714 103.002C71.3714 104.207 70.391 105.188 69.1861 105.188C67.9812 105.188 67.0008 104.207 67.0008 103.002V102.455H71.3716L71.3714 103.002ZM46.1058 37.8928C46.1058 25.1663 56.4595 14.8125 69.1861 14.8125C81.9126 14.8125 92.2664 25.1663 92.2664 37.8928C92.2664 51.8181 79.9118 62.739 65.8928 60.7371C54.7206 59.1339 46.1058 49.5011 46.1058 37.8928ZM71.3714 63.6934V74.3649H67.0006C67.0006 72.7877 67.0006 64.5598 67.0006 63.6934C68.4008 63.8113 69.9095 63.8166 71.3714 63.6934ZM61.7354 65.1733C62.323 63.9144 64.1881 63.7791 64.1881 64.9798V75.1879V75.1882C64.1879 75.2038 64.1898 75.219 64.19 75.2346C64.2036 76.2876 65.0506 77.1774 66.1544 77.1774H78.745C79.7118 77.1774 80.4985 77.964 80.4985 78.9309C80.4985 79.8977 79.712 80.6844 78.745 80.6844C77.4003 80.6844 68.962 80.6844 67.2001 80.6844C66.4233 80.6844 65.7938 81.3141 65.7938 82.0907C65.7938 82.8673 66.4233 83.4969 67.2001 83.4969H77.3061C78.2729 83.4969 79.0596 84.2835 79.0596 85.2504C79.0596 86.2174 78.2731 87.0039 77.3061 87.0039C76.0403 87.0039 68.6965 87.0039 67.2001 87.0039C66.4233 87.0039 65.7938 87.6336 65.7938 88.4102C65.7938 89.1868 66.4233 89.8164 67.2001 89.8164H75.8675C76.8342 89.8164 77.6208 90.603 77.6208 91.5699C77.6208 92.5369 76.8344 93.3234 75.8675 93.3234C72.7655 93.3234 69.1015 93.3234 67.1999 93.3234C66.4231 93.3234 65.7936 93.9531 65.7936 94.7297C65.7936 95.5063 66.4231 96.1359 67.1999 96.1359H74.4286C75.3953 96.1359 76.1821 96.9225 76.1821 97.8894C76.1821 98.8562 75.3955 99.6429 74.4286 99.6429C72.6342 99.6429 60.1062 99.6429 58.2629 99.6429C53.7314 99.6429 53.1456 96.9997 47.5821 96.9997V77.8459C49.4206 77.8459 53.4237 78.0795 56.9084 74.6117C60.8939 70.6453 60.6638 67.4679 61.7354 65.1733Z" fill="black"/>
<circle cx="69.5" cy="38" r="19.5" fill="url(#paint0_linear_295_6523)"/>
<path d="M79.4502 27.9416C77.751 26.0743 74.8993 26.0811 73.189 27.7914L69.2057 31.7749L65.2617 27.8306C63.5925 26.1617 60.9454 26.0732 59.2356 27.6289C57.3638 29.3319 57.3799 32.1849 59.0852 33.8899L63.0878 37.8924L59.0854 41.895C57.379 43.6009 57.3643 46.4537 59.2354 48.156C60.9465 49.7126 63.5933 49.6224 65.2618 47.9542L69.2057 44.0102L73.189 47.9934C74.8941 49.6991 77.7475 49.7147 79.45 47.8434C81.0062 46.1332 80.9175 43.4863 79.2484 41.8172L75.3235 37.8924L79.2482 33.9677C80.9175 32.2987 81.0062 29.6516 79.4502 27.9416Z" fill="white"/>
<path d="M79.4497 27.9419C77.7505 26.0746 74.8988 26.0813 73.1885 27.7917L69.2052 31.7751L65.2612 27.8309C63.592 26.1619 60.9449 26.0734 59.2351 27.6291C57.3633 29.3322 57.3794 32.1852 59.0847 33.8901L63.0873 37.8927L59.0849 41.8952C57.3785 43.6011 57.3639 46.4539 59.2349 48.1562C60.946 49.7129 63.5928 49.6227 65.2614 47.9545L69.2052 44.0104L73.1885 47.9937C74.8936 49.6994 77.747 49.7149 79.4495 47.8437C81.0057 46.1335 80.917 43.4866 79.2479 41.8174L75.323 37.8927L79.2477 33.9679C80.917 32.299 81.0057 29.6519 79.4497 27.9419ZM77.2589 31.9793L72.6348 36.6036C71.9223 37.3157 71.9217 38.4694 72.6344 39.1817L77.2591 43.8064C77.8544 44.4016 77.9037 45.3636 77.3692 45.9511C76.7808 46.5977 75.7854 46.6137 75.1775 46.0052L70.4937 41.3215C69.7837 40.6116 68.6272 40.6118 67.9165 41.3222L63.2727 45.9661C62.6774 46.5612 61.7154 46.6109 61.1279 46.0761C60.4825 45.4889 60.464 44.4938 61.0739 43.8842L65.776 39.1819C66.4897 38.4691 66.4882 37.3152 65.7766 36.6044L61.0737 31.9015C60.4645 31.2925 60.4822 30.2972 61.1281 29.7096C61.7152 29.1756 62.6776 29.2247 63.2727 29.8199L67.9169 34.4641C68.627 35.1741 69.7831 35.1745 70.4943 34.4642L75.1779 29.7807C75.7749 29.1839 76.7718 29.1781 77.3697 29.8351C77.9039 30.4219 77.8544 31.384 77.2589 31.9793Z" fill="black"/>
<path d="M89.9331 41.4074C90.062 40.6414 89.5456 39.9162 88.7796 39.7872C88.0139 39.6584 87.2886 40.1747 87.1595 40.9405C85.6793 49.7367 78.1205 56.1211 69.1861 56.1211C59.135 56.1211 50.9575 47.9438 50.9575 37.8927C50.9575 27.8416 59.1348 19.6643 69.1861 19.6643C78.1205 19.6643 85.6795 26.0487 87.1595 34.8449C87.2885 35.6106 88.0135 36.1264 88.7796 35.9982C89.5456 35.8692 90.062 35.1439 89.9331 34.378C89.1171 29.5304 86.5986 25.0934 82.8408 21.8847C79.04 18.6391 74.1906 16.8518 69.1861 16.8518C57.584 16.8518 48.145 26.2907 48.145 37.8927C48.145 49.4946 57.584 58.9336 69.1861 58.9336C79.5706 58.9337 88.2539 51.3841 89.9331 41.4074Z" fill="black"/>
<defs>
<linearGradient id="paint0_linear_295_6523" x1="50" y1="36.0102" x2="89.008" y2="35.6226" gradientUnits="userSpaceOnUse">
<stop stop-color="#EE7900"/>
<stop offset="1" stop-color="#EE7900" stop-opacity="0"/>
</linearGradient>
</defs>
</svg>
