<svg width="120" height="120" viewBox="0 0 120 120" fill="none" xmlns="http://www.w3.org/2000/svg">
<path d="M18 41H104V90L26.5 88L23.5 82.5L18 76.5V41Z" fill="url(#paint0_linear_295_6508)"/>
<path d="M104.062 42.375H104.25C106.318 42.375 108 40.6927 108 38.625V34.875C108 32.8073 106.318 31.125 104.25 31.125H93.2393V26.4375C93.2393 24.3698 91.557 22.6875 89.4893 22.6875H81.8856C79.8178 22.6875 78.1356 24.3698 78.1356 26.4375V31.125H41.8643V26.4375C41.8643 24.3698 40.182 22.6875 38.1143 22.6875H30.5107C28.443 22.6875 26.7607 24.3698 26.7607 26.4375V31.125H15.75C13.6823 31.125 12 32.8073 12 34.875V38.625C12 40.6927 13.6823 42.375 15.75 42.375H15.9375V86.0625H15.75C13.6823 86.0625 12 87.7448 12 89.8125V93.5625C12 95.6302 13.6823 97.3125 15.75 97.3125H104.25C106.318 97.3125 108 95.6302 108 93.5625V89.8125C108 87.7448 106.318 86.0625 104.25 86.0625H104.062C104.062 81.6743 104.062 72.8008 104.062 68.4377C104.062 67.4021 103.223 66.5627 102.188 66.5627C101.152 66.5627 100.312 67.4021 100.312 68.4377V75.9107L96.0133 80.2099C94.3984 81.825 93.351 83.8566 92.9717 86.0625H27.0283C26.6492 83.8566 25.6018 81.825 23.9867 80.2099L19.6875 75.9109V42.375H100.312V51.5623C100.312 52.5979 101.152 53.4373 102.188 53.4373C103.223 53.4373 104.062 52.5979 104.062 51.5623V42.375ZM23.4375 87.9375C23.4375 88.9729 24.2769 89.8125 25.3125 89.8125H94.6875C95.7229 89.8125 96.5625 88.9729 96.5625 87.9375C96.5625 86.0199 97.3091 84.2175 98.6651 82.8617L100.312 81.2143V87.9375C100.312 88.9729 101.152 89.8125 102.188 89.8125L104.25 89.8101C104.25 89.8101 104.25 89.8108 104.25 89.8125V93.5625H15.75V89.8125H17.8125C18.8481 89.8125 19.6875 88.9729 19.6875 87.9375V81.2141L21.3351 82.8617C22.6909 84.2175 23.4375 86.0201 23.4375 87.9375ZM81.8857 26.4375H89.4894V31.125H81.8857V26.4375ZM30.5107 26.4375H38.1144V31.125H30.5107V26.4375ZM15.75 34.875H104.25L104.252 38.6248C104.252 38.6248 104.252 38.625 104.25 38.625H15.75V34.875Z" fill="black"/>
<path d="M102.188 61.875C103.223 61.875 104.062 61.0355 104.062 60C104.062 58.9645 103.223 58.125 102.188 58.125C101.152 58.125 100.312 58.9645 100.312 60C100.312 61.0355 101.152 61.875 102.188 61.875Z" fill="black"/>
<path d="M55.8167 82.175C56.046 82.268 56.2849 82.3126 56.5209 82.3126C57.1119 82.3126 57.6853 82.0327 58.0459 81.5292L72.3504 61.5605C72.7597 60.9892 72.815 60.2369 72.4939 59.6118C72.1727 58.9865 71.529 58.5935 70.826 58.5935H63.7811L65.3323 48.2786C65.4613 47.4217 64.986 46.5881 64.1831 46.2622C63.3802 45.9365 62.4585 46.2033 61.9539 46.9077L47.6492 66.8765C47.2399 67.4478 47.1844 68.2001 47.5055 68.8252C47.8267 69.4505 48.4704 69.8435 49.1734 69.8435H56.2185L54.6675 80.1584C54.5387 81.0155 55.0138 81.8491 55.8167 82.175Z" fill="white"/>
<path d="M55.8169 82.175C56.0462 82.268 56.2851 82.3126 56.5212 82.3126C57.1122 82.3126 57.6855 82.0327 58.0461 81.5292L72.3507 61.5605C72.76 60.9892 72.8153 60.2369 72.4941 59.6118C72.1729 58.9865 71.5292 58.5935 70.8263 58.5935H63.7814L65.3325 48.2786C65.4615 47.4217 64.9862 46.5881 64.1834 46.2622C63.3805 45.9365 62.4587 46.2033 61.9542 46.9077L47.6494 66.8765C47.2401 67.4478 47.1846 68.2001 47.5058 68.8252C47.827 69.4505 48.4707 69.8435 49.1736 69.8435H56.2187L54.6677 80.1584C54.5389 81.0155 55.014 81.8491 55.8169 82.175ZM52.8233 66.0937L60.4658 55.4253L59.7494 60.1899C59.6682 60.7299 59.8264 61.2783 60.1825 61.6921C60.5387 62.1057 61.0575 62.3439 61.6035 62.3439H67.177L59.5349 73.0122L60.2515 68.2477C60.3327 67.7077 60.1744 67.1592 59.8182 66.7454C59.4619 66.3318 58.9431 66.0937 58.3971 66.0937H52.8233Z" fill="black"/>
<path d="M81.9375 49.875C80.9021 49.875 80.0625 50.7144 80.0625 51.75C80.0625 52.7856 80.9021 53.625 81.9375 53.625H89.4375C90.4729 53.625 91.3125 52.7856 91.3125 51.75C91.3125 50.7144 90.4729 49.875 89.4375 49.875H81.9375Z" fill="black"/>
<path d="M34.3125 57.375C35.3481 57.375 36.1875 56.5356 36.1875 55.5V53.625H38.0625C39.0981 53.625 39.9375 52.7856 39.9375 51.75C39.9375 50.7144 39.0981 49.875 38.0625 49.875H36.1875V48C36.1875 46.9644 35.3481 46.125 34.3125 46.125C33.2769 46.125 32.4375 46.9644 32.4375 48V49.875H30.5625C29.5269 49.875 28.6875 50.7144 28.6875 51.75C28.6875 52.7856 29.5269 53.625 30.5625 53.625H32.4375V55.5C32.4375 56.5356 33.2769 57.375 34.3125 57.375Z" fill="black"/>
<defs>
<linearGradient id="paint0_linear_295_6508" x1="18" y1="63" x2="104" y2="61.5" gradientUnits="userSpaceOnUse">
<stop stop-color="#EE7900"/>
<stop offset="1" stop-color="#EE7900" stop-opacity="0"/>
</linearGradient>
</defs>
</svg>
