<svg width="120" height="120" viewBox="0 0 120 120" fill="none" xmlns="http://www.w3.org/2000/svg">
<path d="M41 17H80C86.6274 17 92 22.3726 92 29V103L85.625 98L79.25 103L72.875 98L66.5 103L60.125 97L53.75 103L47.375 97L41 103V17Z" fill="url(#paint0_linear_295_6488)"/>
<rect x="49" y="34" width="35" height="22" fill="white"/>
<path d="M85.4785 56.1216V34.1571C85.4785 33.1866 84.6917 32.3999 83.7214 32.3999H49.4493C48.479 32.3999 47.6921 33.1866 47.6921 34.1571V56.1216C47.6921 57.0921 48.479 57.8788 49.4493 57.8788H83.7214C84.6917 57.8788 85.4785 57.0921 85.4785 56.1216ZM81.9642 35.9142V41.1857H51.2065V35.9142H81.9642ZM51.2065 54.3645V44.7H81.9642V54.3645H51.2065Z" fill="black"/>
<path d="M52.8701 83.3576C53.8404 83.3576 54.6272 82.5709 54.6272 81.6004V80.7841C55.583 80.3033 56.3775 79.4913 56.8181 78.4277C57.7929 76.0738 56.6712 73.3657 54.3174 72.3908L52.768 71.7489C52.2139 71.5194 51.9398 70.8575 52.1693 70.3035C52.3986 69.7496 53.0605 69.4753 53.6146 69.7046L54.3891 70.0257C55.2862 70.3971 56.3138 69.9715 56.685 69.075C57.0565 68.1785 56.6309 67.1506 55.7344 66.7791L54.9595 66.4579C54.8495 66.4124 54.7388 66.3715 54.6274 66.3349V65.786C54.6274 64.8155 53.8406 64.0288 52.8702 64.0288C51.8999 64.0288 51.1131 64.8155 51.1131 65.786V66.6022C50.1574 67.0829 49.3629 67.8951 48.9222 68.9587C47.9474 71.3126 49.0691 74.0207 51.423 74.9956L52.9723 75.6375C53.2424 75.7494 53.454 75.9626 53.568 76.2376C53.6819 76.5126 53.6829 76.8129 53.5712 77.0831C53.3419 77.637 52.6798 77.9113 52.1259 77.682L51.3514 77.3609C50.4547 76.9895 49.4269 77.4152 49.0554 78.3116C48.684 79.2081 49.1096 80.236 50.0061 80.6075L50.781 80.9287C50.891 80.9742 51.0017 81.0151 51.1131 81.0517V81.6006C51.1129 82.5709 51.8996 83.3576 52.8701 83.3576Z" fill="black"/>
<path d="M82.843 80.7219H69.452C68.4817 80.7219 67.6948 81.5086 67.6948 82.4791C67.6948 83.4496 68.4817 84.2363 69.452 84.2363H82.843C83.8133 84.2363 84.6001 83.4496 84.6001 82.4791C84.6001 81.5086 83.8133 80.7219 82.843 80.7219Z" fill="black"/>
<path d="M82.8433 63.1501H65.0594C64.0891 63.1501 63.3022 63.9368 63.3022 64.9073C63.3022 65.8778 64.0891 66.6645 65.0594 66.6645H82.8433C83.8136 66.6645 84.6005 65.8778 84.6005 64.9073C84.6005 63.9368 83.8136 63.1501 82.8433 63.1501Z" fill="black"/>
<path d="M82.8433 71.936H65.0594C64.0891 71.936 63.3022 72.7227 63.3022 73.6932C63.3022 74.6637 64.0891 75.4504 65.0594 75.4504H82.8433C83.8136 75.4504 84.6005 74.6637 84.6005 73.6932C84.6005 72.7227 83.8136 71.936 82.8433 71.936Z" fill="black"/>
<path d="M81.4782 15H34.0784C29.4779 15 25.7354 18.7442 25.7354 23.3465V37.2243C25.7354 38.1947 26.5222 38.9814 27.4925 38.9814H38.907V74.9284C38.907 75.8989 39.6939 76.6856 40.6642 76.6856C41.6345 76.6856 42.4214 75.8989 42.4214 74.9284V23.3465C42.4214 21.547 41.8494 19.8789 40.8775 18.5143H81.4784C86.591 18.5143 90.7506 22.8498 90.7506 28.1787V99.1175L87.2419 95.7854C86.5634 95.1414 85.4996 95.1414 84.8219 95.7854L79.5557 100.786L74.2895 95.7854C73.6114 95.1414 72.5478 95.1414 71.8697 95.7854L66.6035 100.786L61.3374 95.7854C60.6593 95.1414 59.5954 95.1414 58.9176 95.7854L53.6514 100.786L48.3852 95.7854C47.7071 95.1414 46.6433 95.1414 45.9652 95.7854L42.4216 99.1507V90.7427C42.4216 89.7722 41.6347 88.9856 40.6644 88.9856C39.6941 88.9856 38.9072 89.7722 38.9072 90.7427V103.243C38.9072 103.945 39.3256 104.58 39.9712 104.857C40.1945 104.953 40.4302 105 40.664 105C41.106 105 41.5412 104.833 41.8745 104.517L47.1754 99.4825L52.4416 104.483C53.1193 105.127 54.1833 105.127 54.8614 104.483L60.1276 99.4825L65.3935 104.483C66.0717 105.127 67.1355 105.127 67.8134 104.483L73.0797 99.4823L78.3459 104.483C79.024 105.127 80.0879 105.127 80.7657 104.483L86.0319 99.4823L91.2978 104.483C91.8073 104.967 92.5562 105.101 93.2011 104.824C93.8467 104.546 94.2651 103.912 94.2651 103.209V28.1787C94.2647 20.912 88.5286 15 81.4782 15ZM38.907 35.4671H29.2497V23.3465C29.2497 20.6821 31.4159 18.5143 34.0784 18.5143C36.7408 18.5143 38.9069 20.682 38.9069 23.3465L38.907 35.4671Z" fill="black"/>
<path d="M40.6649 84.5933C40.9292 84.5933 41.1973 84.5335 41.4496 84.4073C42.3177 83.9733 42.6695 82.9178 42.2356 82.0498C41.8016 81.1817 40.7455 80.8301 39.8782 81.264L39.877 81.2645C39.0089 81.6985 38.6579 82.7537 39.0917 83.6217C39.3994 84.2374 40.0202 84.5933 40.6649 84.5933Z" fill="black"/>
<defs>
<linearGradient id="paint0_linear_295_6488" x1="66" y1="17" x2="62.2137" y2="99.8269" gradientUnits="userSpaceOnUse">
<stop stop-color="#EE7900"/>
<stop offset="0.937074" stop-color="#EE7900" stop-opacity="0"/>
</linearGradient>
</defs>
</svg>
